ISO-10303-21;
HEADER;
/* Generated by software containing ST-Developer
 * from STEP Tools, Inc. (www.steptools.com) 
 */
/* OPTION: using custom renumber hook */

FILE_DESCRIPTION(
/* description */ ('STEP AP242 Edition 2',
'CAx-IF Rec.Pracs.---Representation and Presentation of Product Manufa
cturing Information (PMI)---4.0---2014-10-13',
'CAx-IF Rec.Pracs.---3D Tessellated Geometry---0.4---2014-09-14','2;1',
'CAx-IF Rec.Pracs.---User Defined Attributes---1.5---2016-08-15'),
/* implementation_level */ '2;1');

FILE_NAME(
/* name */ 'Part Studio 1 - Part 1',
/* time_stamp */ '2026-07-21T21:15:33Z',
/* author */ (''),
/* organization */ (''),
/* preprocessor_version */ 'ST-DEVELOPER v20',
/* originating_system */ 'ONSHAPE BY PTC INC, 1.218',
/* authorisation */ '  ');

FILE_SCHEMA (('AP242_MANAGED_MODEL_BASED_3D_ENGINEERING_MIM_LF { 1 0 10303 442 3 1 4 }'));
ENDSEC;

DATA;
#10=SHAPE_REPRESENTATION_RELATIONSHIP('','',#347,#11);
#11=ADVANCED_BREP_SHAPE_REPRESENTATION('',(#345),#593);
#12=CIRCLE('',#351,0.003);
#13=CIRCLE('',#352,0.003);
#14=CIRCLE('',#355,0.003);
#15=CIRCLE('',#356,0.003);
#16=CIRCLE('',#359,0.003);
#17=CIRCLE('',#360,0.003);
#18=CIRCLE('',#363,0.003);
#19=CIRCLE('',#364,0.003);
#20=CIRCLE('',#366,0.0015);
#21=CIRCLE('',#367,0.0015);
#22=CIRCLE('',#368,0.0015);
#23=CIRCLE('',#369,0.0015);
#24=CIRCLE('',#370,0.003);
#25=CIRCLE('',#371,0.003);
#26=CIRCLE('',#372,0.003);
#27=CIRCLE('',#373,0.003);
#28=CIRCLE('',#375,0.0015);
#29=CIRCLE('',#376,0.0015);
#30=CIRCLE('',#377,0.0015);
#31=CIRCLE('',#378,0.0015);
#32=CIRCLE('',#379,0.003);
#33=CIRCLE('',#380,0.003);
#34=CIRCLE('',#381,0.003);
#35=CIRCLE('',#382,0.003);
#36=CYLINDRICAL_SURFACE('',#350,0.003);
#37=CYLINDRICAL_SURFACE('',#354,0.003);
#38=CYLINDRICAL_SURFACE('',#358,0.003);
#39=CYLINDRICAL_SURFACE('',#362,0.003);
#40=CYLINDRICAL_SURFACE('',#383,0.0015);
#41=CYLINDRICAL_SURFACE('',#384,0.0015);
#42=CYLINDRICAL_SURFACE('',#385,0.0015);
#43=CYLINDRICAL_SURFACE('',#386,0.0015);
#44=CYLINDRICAL_SURFACE('',#387,0.003);
#45=CYLINDRICAL_SURFACE('',#388,0.003);
#46=CYLINDRICAL_SURFACE('',#389,0.003);
#47=CYLINDRICAL_SURFACE('',#390,0.003);
#48=ORIENTED_EDGE('',*,*,#136,.F.);
#49=ORIENTED_EDGE('',*,*,#137,.F.);
#50=ORIENTED_EDGE('',*,*,#138,.T.);
#51=ORIENTED_EDGE('',*,*,#139,.T.);
#52=ORIENTED_EDGE('',*,*,#140,.T.);
#53=ORIENTED_EDGE('',*,*,#141,.F.);
#54=ORIENTED_EDGE('',*,*,#142,.F.);
#55=ORIENTED_EDGE('',*,*,#137,.T.);
#56=ORIENTED_EDGE('',*,*,#143,.T.);
#57=ORIENTED_EDGE('',*,*,#144,.T.);
#58=ORIENTED_EDGE('',*,*,#145,.F.);
#59=ORIENTED_EDGE('',*,*,#146,.T.);
#60=ORIENTED_EDGE('',*,*,#147,.F.);
#61=ORIENTED_EDGE('',*,*,#148,.F.);
#62=ORIENTED_EDGE('',*,*,#149,.T.);
#63=ORIENTED_EDGE('',*,*,#150,.T.);
#64=ORIENTED_EDGE('',*,*,#151,.T.);
#65=ORIENTED_EDGE('',*,*,#152,.F.);
#66=ORIENTED_EDGE('',*,*,#153,.F.);
#67=ORIENTED_EDGE('',*,*,#148,.T.);
#68=ORIENTED_EDGE('',*,*,#154,.T.);
#69=ORIENTED_EDGE('',*,*,#155,.F.);
#70=ORIENTED_EDGE('',*,*,#156,.F.);
#71=ORIENTED_EDGE('',*,*,#152,.T.);
#72=ORIENTED_EDGE('',*,*,#157,.F.);
#73=ORIENTED_EDGE('',*,*,#158,.T.);
#74=ORIENTED_EDGE('',*,*,#159,.T.);
#75=ORIENTED_EDGE('',*,*,#160,.T.);
#76=ORIENTED_EDGE('',*,*,#161,.F.);
#77=ORIENTED_EDGE('',*,*,#139,.F.);
#78=ORIENTED_EDGE('',*,*,#162,.T.);
#79=ORIENTED_EDGE('',*,*,#163,.T.);
#80=ORIENTED_EDGE('',*,*,#164,.F.);
#81=ORIENTED_EDGE('',*,*,#165,.F.);
#82=ORIENTED_EDGE('',*,*,#166,.F.);
#83=ORIENTED_EDGE('',*,*,#167,.F.);
#84=ORIENTED_EDGE('',*,*,#138,.F.);
#85=ORIENTED_EDGE('',*,*,#142,.T.);
#86=ORIENTED_EDGE('',*,*,#168,.T.);
#87=ORIENTED_EDGE('',*,*,#145,.T.);
#88=ORIENTED_EDGE('',*,*,#169,.T.);
#89=ORIENTED_EDGE('',*,*,#149,.F.);
#90=ORIENTED_EDGE('',*,*,#153,.T.);
#91=ORIENTED_EDGE('',*,*,#156,.T.);
#92=ORIENTED_EDGE('',*,*,#170,.T.);
#93=ORIENTED_EDGE('',*,*,#159,.F.);
#94=ORIENTED_EDGE('',*,*,#171,.T.);
#95=ORIENTED_EDGE('',*,*,#162,.F.);
#96=ORIENTED_EDGE('',*,*,#172,.T.);
#97=ORIENTED_EDGE('',*,*,#173,.T.);
#98=ORIENTED_EDGE('',*,*,#174,.T.);
#99=ORIENTED_EDGE('',*,*,#175,.T.);
#100=ORIENTED_EDGE('',*,*,#136,.T.);
#101=ORIENTED_EDGE('',*,*,#161,.T.);
#102=ORIENTED_EDGE('',*,*,#176,.T.);
#103=ORIENTED_EDGE('',*,*,#157,.T.);
#104=ORIENTED_EDGE('',*,*,#177,.T.);
#105=ORIENTED_EDGE('',*,*,#154,.F.);
#106=ORIENTED_EDGE('',*,*,#151,.F.);
#107=ORIENTED_EDGE('',*,*,#147,.T.);
#108=ORIENTED_EDGE('',*,*,#178,.T.);
#109=ORIENTED_EDGE('',*,*,#143,.F.);
#110=ORIENTED_EDGE('',*,*,#179,.T.);
#111=ORIENTED_EDGE('',*,*,#140,.F.);
#112=ORIENTED_EDGE('',*,*,#167,.T.);
#113=ORIENTED_EDGE('',*,*,#175,.F.);
#114=ORIENTED_EDGE('',*,*,#166,.T.);
#115=ORIENTED_EDGE('',*,*,#174,.F.);
#116=ORIENTED_EDGE('',*,*,#165,.T.);
#117=ORIENTED_EDGE('',*,*,#173,.F.);
#118=ORIENTED_EDGE('',*,*,#164,.T.);
#119=ORIENTED_EDGE('',*,*,#172,.F.);
#120=ORIENTED_EDGE('',*,*,#171,.F.);
#121=ORIENTED_EDGE('',*,*,#158,.F.);
#122=ORIENTED_EDGE('',*,*,#176,.F.);
#123=ORIENTED_EDGE('',*,*,#163,.F.);
#124=ORIENTED_EDGE('',*,*,#170,.F.);
#125=ORIENTED_EDGE('',*,*,#155,.T.);
#126=ORIENTED_EDGE('',*,*,#177,.F.);
#127=ORIENTED_EDGE('',*,*,#160,.F.);
#128=ORIENTED_EDGE('',*,*,#169,.F.);
#129=ORIENTED_EDGE('',*,*,#144,.F.);
#130=ORIENTED_EDGE('',*,*,#178,.F.);
#131=ORIENTED_EDGE('',*,*,#150,.F.);
#132=ORIENTED_EDGE('',*,*,#168,.F.);
#133=ORIENTED_EDGE('',*,*,#141,.T.);
#134=ORIENTED_EDGE('',*,*,#179,.F.);
#135=ORIENTED_EDGE('',*,*,#146,.F.);
#136=EDGE_CURVE('',#180,#181,#212,.T.);
#137=EDGE_CURVE('',#182,#180,#213,.T.);
#138=EDGE_CURVE('',#182,#183,#214,.T.);
#139=EDGE_CURVE('',#183,#181,#215,.T.);
#140=EDGE_CURVE('',#180,#184,#12,.T.);
#141=EDGE_CURVE('',#185,#184,#216,.T.);
#142=EDGE_CURVE('',#182,#185,#13,.T.);
#143=EDGE_CURVE('',#186,#187,#217,.T.);
#144=EDGE_CURVE('',#187,#188,#218,.F.);
#145=EDGE_CURVE('',#189,#188,#219,.T.);
#146=EDGE_CURVE('',#189,#186,#220,.T.);
#147=EDGE_CURVE('',#190,#191,#14,.T.);
#148=EDGE_CURVE('',#192,#190,#221,.T.);
#149=EDGE_CURVE('',#192,#193,#15,.T.);
#150=EDGE_CURVE('',#193,#191,#222,.T.);
#151=EDGE_CURVE('',#190,#194,#223,.T.);
#152=EDGE_CURVE('',#195,#194,#224,.T.);
#153=EDGE_CURVE('',#192,#195,#225,.T.);
#154=EDGE_CURVE('',#194,#196,#16,.T.);
#155=EDGE_CURVE('',#197,#196,#226,.T.);
#156=EDGE_CURVE('',#195,#197,#17,.T.);
#157=EDGE_CURVE('',#198,#199,#227,.T.);
#158=EDGE_CURVE('',#198,#200,#228,.F.);
#159=EDGE_CURVE('',#200,#201,#229,.T.);
#160=EDGE_CURVE('',#201,#199,#230,.T.);
#161=EDGE_CURVE('',#181,#202,#18,.T.);
#162=EDGE_CURVE('',#183,#203,#19,.T.);
#163=EDGE_CURVE('',#203,#202,#231,.T.);
#164=EDGE_CURVE('',#204,#204,#20,.T.);
#165=EDGE_CURVE('',#205,#205,#21,.T.);
#166=EDGE_CURVE('',#206,#206,#22,.T.);
#167=EDGE_CURVE('',#207,#207,#23,.T.);
#168=EDGE_CURVE('',#185,#189,#24,.F.);
#169=EDGE_CURVE('',#188,#193,#25,.F.);
#170=EDGE_CURVE('',#197,#201,#26,.F.);
#171=EDGE_CURVE('',#200,#203,#27,.F.);
#172=EDGE_CURVE('',#208,#208,#28,.T.);
#173=EDGE_CURVE('',#209,#209,#29,.T.);
#174=EDGE_CURVE('',#210,#210,#30,.T.);
#175=EDGE_CURVE('',#211,#211,#31,.T.);
#176=EDGE_CURVE('',#202,#198,#32,.T.);
#177=EDGE_CURVE('',#199,#196,#33,.T.);
#178=EDGE_CURVE('',#191,#187,#34,.T.);
#179=EDGE_CURVE('',#186,#184,#35,.T.);
#180=VERTEX_POINT('',#500);
#181=VERTEX_POINT('',#501);
#182=VERTEX_POINT('',#503);
#183=VERTEX_POINT('',#505);
#184=VERTEX_POINT('',#509);
#185=VERTEX_POINT('',#511);
#186=VERTEX_POINT('',#515);
#187=VERTEX_POINT('',#516);
#188=VERTEX_POINT('',#518);
#189=VERTEX_POINT('',#520);
#190=VERTEX_POINT('',#524);
#191=VERTEX_POINT('',#525);
#192=VERTEX_POINT('',#527);
#193=VERTEX_POINT('',#529);
#194=VERTEX_POINT('',#533);
#195=VERTEX_POINT('',#535);
#196=VERTEX_POINT('',#539);
#197=VERTEX_POINT('',#541);
#198=VERTEX_POINT('',#545);
#199=VERTEX_POINT('',#546);
#200=VERTEX_POINT('',#548);
#201=VERTEX_POINT('',#550);
#202=VERTEX_POINT('',#554);
#203=VERTEX_POINT('',#556);
#204=VERTEX_POINT('',#560);
#205=VERTEX_POINT('',#562);
#206=VERTEX_POINT('',#564);
#207=VERTEX_POINT('',#566);
#208=VERTEX_POINT('',#573);
#209=VERTEX_POINT('',#575);
#210=VERTEX_POINT('',#577);
#211=VERTEX_POINT('',#579);
#212=LINE('',#499,#232);
#213=LINE('',#502,#233);
#214=LINE('',#504,#234);
#215=LINE('',#506,#235);
#216=LINE('',#510,#236);
#217=LINE('',#514,#237);
#218=LINE('',#517,#238);
#219=LINE('',#519,#239);
#220=LINE('',#521,#240);
#221=LINE('',#526,#241);
#222=LINE('',#530,#242);
#223=LINE('',#532,#243);
#224=LINE('',#534,#244);
#225=LINE('',#536,#245);
#226=LINE('',#540,#246);
#227=LINE('',#544,#247);
#228=LINE('',#547,#248);
#229=LINE('',#549,#249);
#230=LINE('',#551,#250);
#231=LINE('',#557,#251);
#232=VECTOR('',#395,1.);
#233=VECTOR('',#396,1.);
#234=VECTOR('',#397,1.);
#235=VECTOR('',#398,1.);
#236=VECTOR('',#403,1.);
#237=VECTOR('',#408,1.);
#238=VECTOR('',#409,1.);
#239=VECTOR('',#410,1.);
#240=VECTOR('',#411,1.);
#241=VECTOR('',#416,1.);
#242=VECTOR('',#419,1.);
#243=VECTOR('',#422,1.);
#244=VECTOR('',#423,1.);
#245=VECTOR('',#424,1.);
#246=VECTOR('',#429,1.);
#247=VECTOR('',#434,1.);
#248=VECTOR('',#435,1.);
#249=VECTOR('',#436,1.);
#250=VECTOR('',#437,1.);
#251=VECTOR('',#444,1.);
#252=EDGE_LOOP('',(#48,#49,#50,#51));
#253=EDGE_LOOP('',(#52,#53,#54,#55));
#254=EDGE_LOOP('',(#56,#57,#58,#59));
#255=EDGE_LOOP('',(#60,#61,#62,#63));
#256=EDGE_LOOP('',(#64,#65,#66,#67));
#257=EDGE_LOOP('',(#68,#69,#70,#71));
#258=EDGE_LOOP('',(#72,#73,#74,#75));
#259=EDGE_LOOP('',(#76,#77,#78,#79));
#260=EDGE_LOOP('',(#80));
#261=EDGE_LOOP('',(#81));
#262=EDGE_LOOP('',(#82));
#263=EDGE_LOOP('',(#83));
#264=EDGE_LOOP('',(#84,#85,#86,#87,#88,#89,#90,#91,#92,#93,#94,#95));
#265=EDGE_LOOP('',(#96));
#266=EDGE_LOOP('',(#97));
#267=EDGE_LOOP('',(#98));
#268=EDGE_LOOP('',(#99));
#269=EDGE_LOOP('',(#100,#101,#102,#103,#104,#105,#106,#107,#108,#109,#110,
#111));
#270=EDGE_LOOP('',(#112));
#271=EDGE_LOOP('',(#113));
#272=EDGE_LOOP('',(#114));
#273=EDGE_LOOP('',(#115));
#274=EDGE_LOOP('',(#116));
#275=EDGE_LOOP('',(#117));
#276=EDGE_LOOP('',(#118));
#277=EDGE_LOOP('',(#119));
#278=EDGE_LOOP('',(#120,#121,#122,#123));
#279=EDGE_LOOP('',(#124,#125,#126,#127));
#280=EDGE_LOOP('',(#128,#129,#130,#131));
#281=EDGE_LOOP('',(#132,#133,#134,#135));
#282=FACE_BOUND('',#252,.T.);
#283=FACE_BOUND('',#253,.T.);
#284=FACE_BOUND('',#254,.T.);
#285=FACE_BOUND('',#255,.T.);
#286=FACE_BOUND('',#256,.T.);
#287=FACE_BOUND('',#257,.T.);
#288=FACE_BOUND('',#258,.T.);
#289=FACE_BOUND('',#259,.T.);
#290=FACE_BOUND('',#260,.T.);
#291=FACE_BOUND('',#261,.T.);
#292=FACE_BOUND('',#262,.T.);
#293=FACE_BOUND('',#263,.T.);
#294=FACE_BOUND('',#264,.T.);
#295=FACE_BOUND('',#265,.T.);
#296=FACE_BOUND('',#266,.T.);
#297=FACE_BOUND('',#267,.T.);
#298=FACE_BOUND('',#268,.T.);
#299=FACE_BOUND('',#269,.T.);
#300=FACE_BOUND('',#270,.T.);
#301=FACE_BOUND('',#271,.T.);
#302=FACE_BOUND('',#272,.T.);
#303=FACE_BOUND('',#273,.T.);
#304=FACE_BOUND('',#274,.T.);
#305=FACE_BOUND('',#275,.T.);
#306=FACE_BOUND('',#276,.T.);
#307=FACE_BOUND('',#277,.T.);
#308=FACE_BOUND('',#278,.T.);
#309=FACE_BOUND('',#279,.T.);
#310=FACE_BOUND('',#280,.T.);
#311=FACE_BOUND('',#281,.T.);
#312=PLANE('',#349);
#313=PLANE('',#353);
#314=PLANE('',#357);
#315=PLANE('',#361);
#316=PLANE('',#365);
#317=PLANE('',#374);
#318=ADVANCED_FACE('',(#282),#312,.T.);
#319=ADVANCED_FACE('',(#283),#36,.T.);
#320=ADVANCED_FACE('',(#284),#313,.F.);
#321=ADVANCED_FACE('',(#285),#37,.T.);
#322=ADVANCED_FACE('',(#286),#314,.F.);
#323=ADVANCED_FACE('',(#287),#38,.T.);
#324=ADVANCED_FACE('',(#288),#315,.T.);
#325=ADVANCED_FACE('',(#289),#39,.T.);
#326=ADVANCED_FACE('',(#290,#291,#292,#293,#294),#316,.T.);
#327=ADVANCED_FACE('',(#295,#296,#297,#298,#299),#317,.F.);
#328=ADVANCED_FACE('',(#300,#301),#40,.F.);
#329=ADVANCED_FACE('',(#302,#303),#41,.F.);
#330=ADVANCED_FACE('',(#304,#305),#42,.F.);
#331=ADVANCED_FACE('',(#306,#307),#43,.F.);
#332=ADVANCED_FACE('',(#308),#44,.F.);
#333=ADVANCED_FACE('',(#309),#45,.F.);
#334=ADVANCED_FACE('',(#310),#46,.F.);
#335=ADVANCED_FACE('',(#311),#47,.F.);
#336=CLOSED_SHELL('',(#318,#319,#320,#321,#322,#323,#324,#325,#326,#327,
#328,#329,#330,#331,#332,#333,#334,#335));
#337=STYLED_ITEM('',(#338),#345);
#338=PRESENTATION_STYLE_ASSIGNMENT((#339));
#339=SURFACE_STYLE_USAGE(.BOTH.,#340);
#340=SURFACE_SIDE_STYLE('',(#341));
#341=SURFACE_STYLE_FILL_AREA(#342);
#342=FILL_AREA_STYLE('',(#343));
#343=FILL_AREA_STYLE_COLOUR('',#344);
#344=COLOUR_RGB('',0.615686274509804,0.811764705882353,0.929411764705882);
#345=MANIFOLD_SOLID_BREP('Part 1',#336);
#346=SHAPE_DEFINITION_REPRESENTATION(#598,#347);
#347=SHAPE_REPRESENTATION('Part 1',(#348),#593);
#348=AXIS2_PLACEMENT_3D('',#497,#391,#392);
#349=AXIS2_PLACEMENT_3D('',#498,#393,#394);
#350=AXIS2_PLACEMENT_3D('',#507,#399,#400);
#351=AXIS2_PLACEMENT_3D('',#508,#401,#402);
#352=AXIS2_PLACEMENT_3D('',#512,#404,#405);
#353=AXIS2_PLACEMENT_3D('',#513,#406,#407);
#354=AXIS2_PLACEMENT_3D('',#522,#412,#413);
#355=AXIS2_PLACEMENT_3D('',#523,#414,#415);
#356=AXIS2_PLACEMENT_3D('',#528,#417,#418);
#357=AXIS2_PLACEMENT_3D('',#531,#420,#421);
#358=AXIS2_PLACEMENT_3D('',#537,#425,#426);
#359=AXIS2_PLACEMENT_3D('',#538,#427,#428);
#360=AXIS2_PLACEMENT_3D('',#542,#430,#431);
#361=AXIS2_PLACEMENT_3D('',#543,#432,#433);
#362=AXIS2_PLACEMENT_3D('',#552,#438,#439);
#363=AXIS2_PLACEMENT_3D('',#553,#440,#441);
#364=AXIS2_PLACEMENT_3D('',#555,#442,#443);
#365=AXIS2_PLACEMENT_3D('',#558,#445,#446);
#366=AXIS2_PLACEMENT_3D('',#559,#447,#448);
#367=AXIS2_PLACEMENT_3D('',#561,#449,#450);
#368=AXIS2_PLACEMENT_3D('',#563,#451,#452);
#369=AXIS2_PLACEMENT_3D('',#565,#453,#454);
#370=AXIS2_PLACEMENT_3D('',#567,#455,#456);
#371=AXIS2_PLACEMENT_3D('',#568,#457,#458);
#372=AXIS2_PLACEMENT_3D('',#569,#459,#460);
#373=AXIS2_PLACEMENT_3D('',#570,#461,#462);
#374=AXIS2_PLACEMENT_3D('',#571,#463,#464);
#375=AXIS2_PLACEMENT_3D('',#572,#465,#466);
#376=AXIS2_PLACEMENT_3D('',#574,#467,#468);
#377=AXIS2_PLACEMENT_3D('',#576,#469,#470);
#378=AXIS2_PLACEMENT_3D('',#578,#471,#472);
#379=AXIS2_PLACEMENT_3D('',#580,#473,#474);
#380=AXIS2_PLACEMENT_3D('',#581,#475,#476);
#381=AXIS2_PLACEMENT_3D('',#582,#477,#478);
#382=AXIS2_PLACEMENT_3D('',#583,#479,#480);
#383=AXIS2_PLACEMENT_3D('',#584,#481,#482);
#384=AXIS2_PLACEMENT_3D('',#585,#483,#484);
#385=AXIS2_PLACEMENT_3D('',#586,#485,#486);
#386=AXIS2_PLACEMENT_3D('',#587,#487,#488);
#387=AXIS2_PLACEMENT_3D('',#588,#489,#490);
#388=AXIS2_PLACEMENT_3D('',#589,#491,#492);
#389=AXIS2_PLACEMENT_3D('',#590,#493,#494);
#390=AXIS2_PLACEMENT_3D('',#591,#495,#496);
#391=DIRECTION('',(0.,0.,1.));
#392=DIRECTION('',(1.,0.,0.));
#393=DIRECTION('',(0.,-1.,0.));
#394=DIRECTION('',(0.,0.,-1.));
#395=DIRECTION('',(-1.,0.,0.));
#396=DIRECTION('',(0.,0.,-1.));
#397=DIRECTION('',(-1.,0.,0.));
#398=DIRECTION('',(0.,0.,-1.));
#399=DIRECTION('',(0.,0.,-1.));
#400=DIRECTION('',(-1.,0.,0.));
#401=DIRECTION('',(0.,0.,1.));
#402=DIRECTION('',(1.,0.,0.));
#403=DIRECTION('',(0.,0.,-1.));
#404=DIRECTION('',(0.,0.,1.));
#405=DIRECTION('',(1.,0.,0.));
#406=DIRECTION('',(-1.,-2.42054438508392E-16,0.));
#407=DIRECTION('',(2.42054438508392E-16,-1.,0.));
#408=DIRECTION('',(-2.42054438508392E-16,1.,0.));
#409=DIRECTION('',(0.,0.,-1.));
#410=DIRECTION('',(-2.42054438508392E-16,1.,0.));
#411=DIRECTION('',(0.,0.,-1.));
#412=DIRECTION('',(0.,0.,-1.));
#413=DIRECTION('',(-1.,0.,0.));
#414=DIRECTION('',(0.,0.,-1.));
#415=DIRECTION('',(1.,0.,0.));
#416=DIRECTION('',(0.,0.,-1.));
#417=DIRECTION('',(0.,0.,-1.));
#418=DIRECTION('',(1.,0.,0.));
#419=DIRECTION('',(0.,0.,-1.));
#420=DIRECTION('',(0.,-1.,0.));
#421=DIRECTION('',(0.,0.,-1.));
#422=DIRECTION('',(-1.,0.,0.));
#423=DIRECTION('',(0.,0.,-1.));
#424=DIRECTION('',(-1.,0.,0.));
#425=DIRECTION('',(0.,0.,-1.));
#426=DIRECTION('',(-1.,0.,0.));
#427=DIRECTION('',(0.,0.,1.));
#428=DIRECTION('',(1.,0.,0.));
#429=DIRECTION('',(0.,0.,-1.));
#430=DIRECTION('',(0.,0.,1.));
#431=DIRECTION('',(1.,0.,0.));
#432=DIRECTION('',(-1.,0.,0.));
#433=DIRECTION('',(0.,0.,1.));
#434=DIRECTION('',(0.,1.,0.));
#435=DIRECTION('',(0.,0.,-1.));
#436=DIRECTION('',(0.,1.,0.));
#437=DIRECTION('',(0.,0.,-1.));
#438=DIRECTION('',(0.,0.,-1.));
#439=DIRECTION('',(-1.,0.,0.));
#440=DIRECTION('',(0.,0.,-1.));
#441=DIRECTION('',(1.,0.,0.));
#442=DIRECTION('',(0.,0.,-1.));
#443=DIRECTION('',(1.,0.,0.));
#444=DIRECTION('',(0.,0.,-1.));
#445=DIRECTION('',(0.,0.,1.));
#446=DIRECTION('',(1.,0.,0.));
#447=DIRECTION('',(0.,0.,1.));
#448=DIRECTION('',(1.,0.,0.));
#449=DIRECTION('',(0.,0.,1.));
#450=DIRECTION('',(1.,0.,0.));
#451=DIRECTION('',(0.,0.,1.));
#452=DIRECTION('',(1.,0.,0.));
#453=DIRECTION('',(0.,0.,1.));
#454=DIRECTION('',(1.,0.,0.));
#455=DIRECTION('',(0.,0.,1.));
#456=DIRECTION('',(1.,0.,0.));
#457=DIRECTION('',(0.,0.,1.));
#458=DIRECTION('',(1.,0.,0.));
#459=DIRECTION('',(0.,0.,1.));
#460=DIRECTION('',(1.,0.,0.));
#461=DIRECTION('',(0.,0.,1.));
#462=DIRECTION('',(1.,0.,0.));
#463=DIRECTION('',(0.,0.,1.));
#464=DIRECTION('',(1.,0.,0.));
#465=DIRECTION('',(0.,0.,1.));
#466=DIRECTION('',(1.,0.,0.));
#467=DIRECTION('',(0.,0.,1.));
#468=DIRECTION('',(1.,0.,0.));
#469=DIRECTION('',(0.,0.,1.));
#470=DIRECTION('',(1.,0.,0.));
#471=DIRECTION('',(0.,0.,1.));
#472=DIRECTION('',(1.,0.,0.));
#473=DIRECTION('',(0.,0.,1.));
#474=DIRECTION('',(1.,0.,0.));
#475=DIRECTION('',(0.,0.,1.));
#476=DIRECTION('',(1.,0.,0.));
#477=DIRECTION('',(0.,0.,1.));
#478=DIRECTION('',(1.,0.,0.));
#479=DIRECTION('',(0.,0.,1.));
#480=DIRECTION('',(1.,0.,0.));
#481=DIRECTION('',(0.,0.,1.));
#482=DIRECTION('',(1.,0.,0.));
#483=DIRECTION('',(0.,0.,1.));
#484=DIRECTION('',(1.,0.,0.));
#485=DIRECTION('',(0.,0.,1.));
#486=DIRECTION('',(1.,0.,0.));
#487=DIRECTION('',(0.,0.,1.));
#488=DIRECTION('',(1.,0.,0.));
#489=DIRECTION('',(0.,0.,1.));
#490=DIRECTION('',(1.,0.,0.));
#491=DIRECTION('',(0.,0.,-1.));
#492=DIRECTION('',(-1.,0.,0.));
#493=DIRECTION('',(0.,0.,-1.));
#494=DIRECTION('',(-1.,0.,0.));
#495=DIRECTION('',(0.,0.,1.));
#496=DIRECTION('',(1.,0.,0.));
#497=CARTESIAN_POINT('',(0.,0.,0.));
#498=CARTESIAN_POINT('',(-0.0015,0.,0.004));
#499=CARTESIAN_POINT('',(-0.0015,0.,0.));
#500=CARTESIAN_POINT('',(0.033,-1.12757025938492E-17,0.));
#501=CARTESIAN_POINT('',(-0.003,0.,0.));
#502=CARTESIAN_POINT('',(0.033,-1.12757025938492E-17,0.004));
#503=CARTESIAN_POINT('',(0.033,-1.12757025938492E-17,0.004));
#504=CARTESIAN_POINT('',(-0.0015,0.,0.004));
#505=CARTESIAN_POINT('',(-0.003,0.,0.004));
#506=CARTESIAN_POINT('',(-0.003,0.,0.004));
#507=CARTESIAN_POINT('',(0.033,0.003,0.004));
#508=CARTESIAN_POINT('',(0.033,0.003,0.));
#509=CARTESIAN_POINT('',(0.033,0.006,0.));
#510=CARTESIAN_POINT('',(0.033,0.006,0.004));
#511=CARTESIAN_POINT('',(0.033,0.006,0.004));
#512=CARTESIAN_POINT('',(0.033,0.003,0.004));
#513=CARTESIAN_POINT('',(0.03,0.0275,0.004));
#514=CARTESIAN_POINT('',(0.03,0.0275,0.));
#515=CARTESIAN_POINT('',(0.03,0.009,0.));
#516=CARTESIAN_POINT('',(0.03,0.046,0.));
#517=CARTESIAN_POINT('',(0.03,0.046,0.004));
#518=CARTESIAN_POINT('',(0.03,0.046,0.004));
#519=CARTESIAN_POINT('',(0.03,0.0275,0.004));
#520=CARTESIAN_POINT('',(0.03,0.009,0.004));
#521=CARTESIAN_POINT('',(0.03,0.009,0.));
#522=CARTESIAN_POINT('',(0.033,0.052,0.004));
#523=CARTESIAN_POINT('',(0.033,0.052,0.));
#524=CARTESIAN_POINT('',(0.033,0.055,0.));
#525=CARTESIAN_POINT('',(0.033,0.049,0.));
#526=CARTESIAN_POINT('',(0.033,0.055,0.004));
#527=CARTESIAN_POINT('',(0.033,0.055,0.004));
#528=CARTESIAN_POINT('',(0.033,0.052,0.004));
#529=CARTESIAN_POINT('',(0.033,0.049,0.004));
#530=CARTESIAN_POINT('',(0.033,0.049,0.004));
#531=CARTESIAN_POINT('',(-0.0015,0.055,0.004));
#532=CARTESIAN_POINT('',(-0.0015,0.055,0.));
#533=CARTESIAN_POINT('',(-0.003,0.055,0.));
#534=CARTESIAN_POINT('',(-0.003,0.055,0.004));
#535=CARTESIAN_POINT('',(-0.003,0.055,0.004));
#536=CARTESIAN_POINT('',(-0.0015,0.055,0.004));
#537=CARTESIAN_POINT('',(-0.003,0.052,0.004));
#538=CARTESIAN_POINT('',(-0.003,0.052,0.));
#539=CARTESIAN_POINT('',(-0.003,0.049,0.));
#540=CARTESIAN_POINT('',(-0.003,0.049,0.004));
#541=CARTESIAN_POINT('',(-0.003,0.049,0.004));
#542=CARTESIAN_POINT('',(-0.003,0.052,0.004));
#543=CARTESIAN_POINT('',(0.,0.0275,0.004));
#544=CARTESIAN_POINT('',(0.,0.0275,0.));
#545=CARTESIAN_POINT('',(0.,0.009,0.));
#546=CARTESIAN_POINT('',(0.,0.046,0.));
#547=CARTESIAN_POINT('',(0.,0.009,0.004));
#548=CARTESIAN_POINT('',(0.,0.009,0.004));
#549=CARTESIAN_POINT('',(0.,0.0275,0.004));
#550=CARTESIAN_POINT('',(0.,0.046,0.004));
#551=CARTESIAN_POINT('',(0.,0.046,0.004));
#552=CARTESIAN_POINT('',(-0.003,0.003,0.004));
#553=CARTESIAN_POINT('',(-0.003,0.003,0.));
#554=CARTESIAN_POINT('',(-0.003,0.006,0.));
#555=CARTESIAN_POINT('',(-0.003,0.003,0.004));
#556=CARTESIAN_POINT('',(-0.003,0.006,0.004));
#557=CARTESIAN_POINT('',(-0.003,0.006,0.004));
#558=CARTESIAN_POINT('',(0.015,0.0275,0.004));
#559=CARTESIAN_POINT('',(-0.003,0.003,0.004));
#560=CARTESIAN_POINT('',(-0.0015,0.003,0.004));
#561=CARTESIAN_POINT('',(0.033,0.003,0.004));
#562=CARTESIAN_POINT('',(0.0345,0.003,0.004));
#563=CARTESIAN_POINT('',(0.033,0.052,0.004));
#564=CARTESIAN_POINT('',(0.0345,0.052,0.004));
#565=CARTESIAN_POINT('',(-0.003,0.052,0.004));
#566=CARTESIAN_POINT('',(-0.0015,0.052,0.004));
#567=CARTESIAN_POINT('',(0.033,0.009,0.004));
#568=CARTESIAN_POINT('',(0.033,0.046,0.004));
#569=CARTESIAN_POINT('',(-0.003,0.046,0.004));
#570=CARTESIAN_POINT('',(-0.003,0.009,0.004));
#571=CARTESIAN_POINT('',(0.015,0.0275,0.));
#572=CARTESIAN_POINT('',(-0.003,0.003,0.));
#573=CARTESIAN_POINT('',(-0.0015,0.003,0.));
#574=CARTESIAN_POINT('',(0.033,0.003,0.));
#575=CARTESIAN_POINT('',(0.0345,0.003,0.));
#576=CARTESIAN_POINT('',(0.033,0.052,0.));
#577=CARTESIAN_POINT('',(0.0345,0.052,0.));
#578=CARTESIAN_POINT('',(-0.003,0.052,0.));
#579=CARTESIAN_POINT('',(-0.0015,0.052,0.));
#580=CARTESIAN_POINT('',(-0.003,0.009,0.));
#581=CARTESIAN_POINT('',(-0.003,0.046,0.));
#582=CARTESIAN_POINT('',(0.033,0.046,0.));
#583=CARTESIAN_POINT('',(0.033,0.009,0.));
#584=CARTESIAN_POINT('',(-0.003,0.052,-0.0616734768009752));
#585=CARTESIAN_POINT('',(0.033,0.052,-0.0616734768009752));
#586=CARTESIAN_POINT('',(0.033,0.003,-0.0616734768009752));
#587=CARTESIAN_POINT('',(-0.003,0.003,-0.0616734768009752));
#588=CARTESIAN_POINT('',(-0.003,0.009,0.004));
#589=CARTESIAN_POINT('',(-0.003,0.046,0.004));
#590=CARTESIAN_POINT('',(0.033,0.046,0.004));
#591=CARTESIAN_POINT('',(0.033,0.009,0.004));
#592=MECHANICAL_DESIGN_GEOMETRIC_PRESENTATION_REPRESENTATION('',(#337),
#593);
#593=(
GEOMETRIC_REPRESENTATION_CONTEXT(3)
GLOBAL_UNCERTAINTY_ASSIGNED_CONTEXT((#594))
GLOBAL_UNIT_ASSIGNED_CONTEXT((#597,#596,#595))
REPRESENTATION_CONTEXT('Part 1','TOP_LEVEL_ASSEMBLY_PART')
);
#594=UNCERTAINTY_MEASURE_WITH_UNIT(LENGTH_MEASURE(1.E-8),#597,
'DISTANCE_ACCURACY_VALUE','Maximum Tolerance applied to model');
#595=(
NAMED_UNIT(*)
SI_UNIT($,.STERADIAN.)
SOLID_ANGLE_UNIT()
);
#596=(
NAMED_UNIT(*)
PLANE_ANGLE_UNIT()
SI_UNIT($,.RADIAN.)
);
#597=(
LENGTH_UNIT()
NAMED_UNIT(*)
SI_UNIT($,.METRE.)
);
#598=PRODUCT_DEFINITION_SHAPE('','',#599);
#599=PRODUCT_DEFINITION('','',#601,#600);
#600=PRODUCT_DEFINITION_CONTEXT('',#607,'design');
#601=PRODUCT_DEFINITION_FORMATION_WITH_SPECIFIED_SOURCE('','',#603,
 .NOT_KNOWN.);
#602=PRODUCT_RELATED_PRODUCT_CATEGORY('','',(#603));
#603=PRODUCT('Part 1','Part 1','Part 1',(#605));
#604=PRODUCT_CATEGORY('','');
#605=PRODUCT_CONTEXT('',#607,'mechanical');
#606=APPLICATION_PROTOCOL_DEFINITION('international standard',
'ap242_managed_model_based_3d_engineering',2020,#607);
#607=APPLICATION_CONTEXT('managed model based 3d engineering');
ENDSEC;
END-ISO-10303-21;
