ISO-10303-21;
HEADER;
/* Generated by software containing ST-Developer
 * from STEP Tools, Inc. (www.steptools.com) 
 */
/* OPTION: using custom renumber hook */

FILE_DESCRIPTION(
/* description */ ('STEP AP242 Edition 2',
'CAx-IF Rec.Pracs.---Representation and Presentation of Product Manufa
cturing Information (PMI)---4.0---2014-10-13',
'CAx-IF Rec.Pracs.---3D Tessellated Geometry---0.4---2014-09-14','2;1',
'CAx-IF Rec.Pracs.---User Defined Attributes---1.5---2016-08-15'),
/* implementation_level */ '2;1');

FILE_NAME(
/* name */ 'Part Studio 1 - Part 4',
/* time_stamp */ '2026-07-21T21:16:05Z',
/* author */ (''),
/* organization */ (''),
/* preprocessor_version */ 'ST-DEVELOPER v20',
/* originating_system */ 'ONSHAPE BY PTC INC, 1.218',
/* authorisation */ '  ');

FILE_SCHEMA (('AP242_MANAGED_MODEL_BASED_3D_ENGINEERING_MIM_LF { 1 0 10303 442 3 1 4 }'));
ENDSEC;

DATA;
#10=SHAPE_REPRESENTATION_RELATIONSHIP('','',#392,#11);
#11=ADVANCED_BREP_SHAPE_REPRESENTATION('',(#390),#650);
#12=CYLINDRICAL_SURFACE('',#398,0.003);
#13=CYLINDRICAL_SURFACE('',#402,0.0015);
#14=CYLINDRICAL_SURFACE('',#404,0.003);
#15=CYLINDRICAL_SURFACE('',#406,0.0015);
#16=CYLINDRICAL_SURFACE('',#427,0.003);
#17=CYLINDRICAL_SURFACE('',#428,0.003);
#18=CYLINDRICAL_SURFACE('',#429,0.003);
#19=CYLINDRICAL_SURFACE('',#430,0.003);
#20=LINE('',#546,#55);
#21=LINE('',#549,#56);
#22=LINE('',#551,#57);
#23=LINE('',#555,#58);
#24=LINE('',#558,#59);
#25=LINE('',#560,#60);
#26=LINE('',#562,#61);
#27=LINE('',#563,#62);
#28=LINE('',#567,#63);
#29=LINE('',#571,#64);
#30=LINE('',#573,#65);
#31=LINE('',#574,#66);
#32=LINE('',#576,#67);
#33=LINE('',#588,#68);
#34=LINE('',#591,#69);
#35=LINE('',#593,#70);
#36=LINE('',#595,#71);
#37=LINE('',#597,#72);
#38=LINE('',#601,#73);
#39=LINE('',#605,#74);
#40=LINE('',#607,#75);
#41=LINE('',#609,#76);
#42=LINE('',#611,#77);
#43=LINE('',#615,#78);
#44=LINE('',#617,#79);
#45=LINE('',#619,#80);
#46=LINE('',#623,#81);
#47=LINE('',#625,#82);
#48=LINE('',#627,#83);
#49=LINE('',#629,#84);
#50=LINE('',#632,#85);
#51=LINE('',#634,#86);
#52=LINE('',#636,#87);
#53=LINE('',#638,#88);
#54=LINE('',#642,#89);
#55=VECTOR('',#437,1.);
#56=VECTOR('',#438,1.);
#57=VECTOR('',#439,1.);
#58=VECTOR('',#444,1.);
#59=VECTOR('',#445,1.);
#60=VECTOR('',#446,1.);
#61=VECTOR('',#447,1.);
#62=VECTOR('',#448,1.);
#63=VECTOR('',#453,1.);
#64=VECTOR('',#458,1.);
#65=VECTOR('',#459,1.);
#66=VECTOR('',#460,1.);
#67=VECTOR('',#461,1.);
#68=VECTOR('',#478,1.);
#69=VECTOR('',#483,1.);
#70=VECTOR('',#484,1.);
#71=VECTOR('',#485,1.);
#72=VECTOR('',#488,1.);
#73=VECTOR('',#491,1.);
#74=VECTOR('',#494,1.);
#75=VECTOR('',#497,1.);
#76=VECTOR('',#498,1.);
#77=VECTOR('',#499,1.);
#78=VECTOR('',#504,1.);
#79=VECTOR('',#505,1.);
#80=VECTOR('',#506,1.);
#81=VECTOR('',#511,1.);
#82=VECTOR('',#512,1.);
#83=VECTOR('',#513,1.);
#84=VECTOR('',#516,1.);
#85=VECTOR('',#517,1.);
#86=VECTOR('',#518,1.);
#87=VECTOR('',#519,1.);
#88=VECTOR('',#522,1.);
#89=VECTOR('',#529,1.);
#90=ORIENTED_EDGE('',*,*,#192,.T.);
#91=ORIENTED_EDGE('',*,*,#193,.F.);
#92=ORIENTED_EDGE('',*,*,#194,.T.);
#93=ORIENTED_EDGE('',*,*,#195,.F.);
#94=ORIENTED_EDGE('',*,*,#196,.T.);
#95=ORIENTED_EDGE('',*,*,#197,.F.);
#96=ORIENTED_EDGE('',*,*,#198,.F.);
#97=ORIENTED_EDGE('',*,*,#199,.T.);
#98=ORIENTED_EDGE('',*,*,#200,.F.);
#99=ORIENTED_EDGE('',*,*,#193,.T.);
#100=ORIENTED_EDGE('',*,*,#201,.T.);
#101=ORIENTED_EDGE('',*,*,#202,.F.);
#102=ORIENTED_EDGE('',*,*,#203,.F.);
#103=ORIENTED_EDGE('',*,*,#204,.T.);
#104=ORIENTED_EDGE('',*,*,#198,.T.);
#105=ORIENTED_EDGE('',*,*,#195,.T.);
#106=ORIENTED_EDGE('',*,*,#205,.T.);
#107=ORIENTED_EDGE('',*,*,#206,.T.);
#108=ORIENTED_EDGE('',*,*,#203,.T.);
#109=ORIENTED_EDGE('',*,*,#207,.F.);
#110=ORIENTED_EDGE('',*,*,#208,.F.);
#111=ORIENTED_EDGE('',*,*,#192,.F.);
#112=ORIENTED_EDGE('',*,*,#209,.T.);
#113=ORIENTED_EDGE('',*,*,#210,.T.);
#114=ORIENTED_EDGE('',*,*,#201,.F.);
#115=ORIENTED_EDGE('',*,*,#196,.F.);
#116=ORIENTED_EDGE('',*,*,#208,.T.);
#117=ORIENTED_EDGE('',*,*,#211,.F.);
#118=ORIENTED_EDGE('',*,*,#212,.T.);
#119=ORIENTED_EDGE('',*,*,#213,.F.);
#120=ORIENTED_EDGE('',*,*,#199,.F.);
#121=ORIENTED_EDGE('',*,*,#204,.F.);
#122=ORIENTED_EDGE('',*,*,#206,.F.);
#123=ORIENTED_EDGE('',*,*,#211,.T.);
#124=ORIENTED_EDGE('',*,*,#197,.T.);
#125=ORIENTED_EDGE('',*,*,#210,.F.);
#126=ORIENTED_EDGE('',*,*,#207,.T.);
#127=ORIENTED_EDGE('',*,*,#202,.T.);
#128=ORIENTED_EDGE('',*,*,#209,.F.);
#129=ORIENTED_EDGE('',*,*,#212,.F.);
#130=ORIENTED_EDGE('',*,*,#214,.T.);
#131=ORIENTED_EDGE('',*,*,#215,.F.);
#132=ORIENTED_EDGE('',*,*,#216,.F.);
#133=ORIENTED_EDGE('',*,*,#200,.T.);
#134=ORIENTED_EDGE('',*,*,#217,.F.);
#135=ORIENTED_EDGE('',*,*,#218,.T.);
#136=ORIENTED_EDGE('',*,*,#219,.F.);
#137=ORIENTED_EDGE('',*,*,#220,.T.);
#138=ORIENTED_EDGE('',*,*,#221,.T.);
#139=ORIENTED_EDGE('',*,*,#215,.T.);
#140=ORIENTED_EDGE('',*,*,#219,.T.);
#141=ORIENTED_EDGE('',*,*,#222,.T.);
#142=ORIENTED_EDGE('',*,*,#223,.F.);
#143=ORIENTED_EDGE('',*,*,#224,.T.);
#144=ORIENTED_EDGE('',*,*,#223,.T.);
#145=ORIENTED_EDGE('',*,*,#225,.T.);
#146=ORIENTED_EDGE('',*,*,#226,.F.);
#147=ORIENTED_EDGE('',*,*,#227,.F.);
#148=ORIENTED_EDGE('',*,*,#228,.T.);
#149=ORIENTED_EDGE('',*,*,#229,.T.);
#150=ORIENTED_EDGE('',*,*,#230,.T.);
#151=ORIENTED_EDGE('',*,*,#231,.T.);
#152=ORIENTED_EDGE('',*,*,#232,.F.);
#153=ORIENTED_EDGE('',*,*,#227,.T.);
#154=ORIENTED_EDGE('',*,*,#233,.F.);
#155=ORIENTED_EDGE('',*,*,#234,.T.);
#156=ORIENTED_EDGE('',*,*,#235,.T.);
#157=ORIENTED_EDGE('',*,*,#236,.T.);
#158=ORIENTED_EDGE('',*,*,#221,.F.);
#159=ORIENTED_EDGE('',*,*,#237,.T.);
#160=ORIENTED_EDGE('',*,*,#228,.F.);
#161=ORIENTED_EDGE('',*,*,#232,.T.);
#162=ORIENTED_EDGE('',*,*,#238,.T.);
#163=ORIENTED_EDGE('',*,*,#233,.T.);
#164=ORIENTED_EDGE('',*,*,#239,.T.);
#165=ORIENTED_EDGE('',*,*,#194,.F.);
#166=ORIENTED_EDGE('',*,*,#216,.T.);
#167=ORIENTED_EDGE('',*,*,#226,.T.);
#168=ORIENTED_EDGE('',*,*,#240,.T.);
#169=ORIENTED_EDGE('',*,*,#217,.T.);
#170=ORIENTED_EDGE('',*,*,#214,.F.);
#171=ORIENTED_EDGE('',*,*,#213,.T.);
#172=ORIENTED_EDGE('',*,*,#241,.T.);
#173=ORIENTED_EDGE('',*,*,#235,.F.);
#174=ORIENTED_EDGE('',*,*,#242,.T.);
#175=ORIENTED_EDGE('',*,*,#230,.F.);
#176=ORIENTED_EDGE('',*,*,#225,.F.);
#177=ORIENTED_EDGE('',*,*,#222,.F.);
#178=ORIENTED_EDGE('',*,*,#218,.F.);
#179=ORIENTED_EDGE('',*,*,#240,.F.);
#180=ORIENTED_EDGE('',*,*,#229,.F.);
#181=ORIENTED_EDGE('',*,*,#237,.F.);
#182=ORIENTED_EDGE('',*,*,#220,.F.);
#183=ORIENTED_EDGE('',*,*,#224,.F.);
#184=ORIENTED_EDGE('',*,*,#238,.F.);
#185=ORIENTED_EDGE('',*,*,#231,.F.);
#186=ORIENTED_EDGE('',*,*,#242,.F.);
#187=ORIENTED_EDGE('',*,*,#234,.F.);
#188=ORIENTED_EDGE('',*,*,#239,.F.);
#189=ORIENTED_EDGE('',*,*,#236,.F.);
#190=ORIENTED_EDGE('',*,*,#241,.F.);
#191=ORIENTED_EDGE('',*,*,#205,.F.);
#192=EDGE_CURVE('',#243,#243,#277,.T.);
#193=EDGE_CURVE('',#244,#245,#20,.T.);
#194=EDGE_CURVE('',#244,#246,#21,.T.);
#195=EDGE_CURVE('',#247,#246,#22,.T.);
#196=EDGE_CURVE('',#247,#245,#278,.T.);
#197=EDGE_CURVE('',#248,#249,#23,.T.);
#198=EDGE_CURVE('',#250,#248,#24,.T.);
#199=EDGE_CURVE('',#250,#251,#25,.T.);
#200=EDGE_CURVE('',#244,#251,#26,.T.);
#201=EDGE_CURVE('',#245,#249,#27,.T.);
#202=EDGE_CURVE('',#252,#248,#279,.T.);
#203=EDGE_CURVE('',#253,#252,#28,.T.);
#204=EDGE_CURVE('',#253,#250,#280,.T.);
#205=EDGE_CURVE('',#246,#254,#29,.T.);
#206=EDGE_CURVE('',#254,#253,#30,.T.);
#207=EDGE_CURVE('',#255,#252,#31,.T.);
#208=EDGE_CURVE('',#247,#255,#32,.T.);
#209=EDGE_CURVE('',#256,#256,#281,.T.);
#210=EDGE_CURVE('',#255,#249,#282,.T.);
#211=EDGE_CURVE('',#257,#257,#283,.T.);
#212=EDGE_CURVE('',#258,#258,#284,.T.);
#213=EDGE_CURVE('',#251,#254,#33,.T.);
#214=EDGE_CURVE('',#251,#259,#34,.T.);
#215=EDGE_CURVE('',#260,#259,#35,.T.);
#216=EDGE_CURVE('',#244,#260,#36,.T.);
#217=EDGE_CURVE('',#261,#259,#37,.T.);
#218=EDGE_CURVE('',#261,#262,#285,.T.);
#219=EDGE_CURVE('',#263,#262,#38,.T.);
#220=EDGE_CURVE('',#263,#264,#286,.T.);
#221=EDGE_CURVE('',#264,#260,#39,.T.);
#222=EDGE_CURVE('',#262,#265,#40,.F.);
#223=EDGE_CURVE('',#266,#265,#41,.T.);
#224=EDGE_CURVE('',#266,#263,#42,.T.);
#225=EDGE_CURVE('',#265,#267,#287,.T.);
#226=EDGE_CURVE('',#268,#267,#43,.T.);
#227=EDGE_CURVE('',#269,#268,#44,.T.);
#228=EDGE_CURVE('',#269,#270,#45,.T.);
#229=EDGE_CURVE('',#270,#266,#288,.T.);
#230=EDGE_CURVE('',#268,#271,#46,.T.);
#231=EDGE_CURVE('',#271,#272,#47,.F.);
#232=EDGE_CURVE('',#269,#272,#48,.T.);
#233=EDGE_CURVE('',#273,#274,#49,.T.);
#234=EDGE_CURVE('',#273,#275,#50,.T.);
#235=EDGE_CURVE('',#275,#276,#51,.T.);
#236=EDGE_CURVE('',#276,#274,#52,.F.);
#237=EDGE_CURVE('',#264,#270,#53,.F.);
#238=EDGE_CURVE('',#272,#273,#289,.T.);
#239=EDGE_CURVE('',#274,#246,#290,.T.);
#240=EDGE_CURVE('',#267,#261,#54,.T.);
#241=EDGE_CURVE('',#254,#276,#291,.F.);
#242=EDGE_CURVE('',#275,#271,#292,.F.);
#243=VERTEX_POINT('',#545);
#244=VERTEX_POINT('',#547);
#245=VERTEX_POINT('',#548);
#246=VERTEX_POINT('',#550);
#247=VERTEX_POINT('',#552);
#248=VERTEX_POINT('',#556);
#249=VERTEX_POINT('',#557);
#250=VERTEX_POINT('',#559);
#251=VERTEX_POINT('',#561);
#252=VERTEX_POINT('',#566);
#253=VERTEX_POINT('',#568);
#254=VERTEX_POINT('',#572);
#255=VERTEX_POINT('',#575);
#256=VERTEX_POINT('',#579);
#257=VERTEX_POINT('',#584);
#258=VERTEX_POINT('',#586);
#259=VERTEX_POINT('',#592);
#260=VERTEX_POINT('',#594);
#261=VERTEX_POINT('',#598);
#262=VERTEX_POINT('',#600);
#263=VERTEX_POINT('',#602);
#264=VERTEX_POINT('',#604);
#265=VERTEX_POINT('',#608);
#266=VERTEX_POINT('',#610);
#267=VERTEX_POINT('',#614);
#268=VERTEX_POINT('',#616);
#269=VERTEX_POINT('',#618);
#270=VERTEX_POINT('',#620);
#271=VERTEX_POINT('',#624);
#272=VERTEX_POINT('',#626);
#273=VERTEX_POINT('',#630);
#274=VERTEX_POINT('',#631);
#275=VERTEX_POINT('',#633);
#276=VERTEX_POINT('',#635);
#277=CIRCLE('',#395,0.0015);
#278=CIRCLE('',#396,0.003);
#279=CIRCLE('',#399,0.003);
#280=CIRCLE('',#400,0.003);
#281=CIRCLE('',#403,0.0015);
#282=CIRCLE('',#405,0.003);
#283=CIRCLE('',#407,0.0015);
#284=CIRCLE('',#408,0.0015);
#285=CIRCLE('',#413,0.003);
#286=CIRCLE('',#414,0.003);
#287=CIRCLE('',#417,0.003);
#288=CIRCLE('',#418,0.003);
#289=CIRCLE('',#422,0.003);
#290=CIRCLE('',#423,0.003);
#291=CIRCLE('',#425,0.003);
#292=CIRCLE('',#426,0.003);
#293=EDGE_LOOP('',(#90));
#294=EDGE_LOOP('',(#91,#92,#93,#94));
#295=EDGE_LOOP('',(#95,#96,#97,#98,#99,#100));
#296=EDGE_LOOP('',(#101,#102,#103,#104));
#297=EDGE_LOOP('',(#105,#106,#107,#108,#109,#110));
#298=EDGE_LOOP('',(#111));
#299=EDGE_LOOP('',(#112));
#300=EDGE_LOOP('',(#113,#114,#115,#116));
#301=EDGE_LOOP('',(#117));
#302=EDGE_LOOP('',(#118));
#303=EDGE_LOOP('',(#119,#120,#121,#122));
#304=EDGE_LOOP('',(#123));
#305=EDGE_LOOP('',(#124,#125,#126,#127));
#306=EDGE_LOOP('',(#128));
#307=EDGE_LOOP('',(#129));
#308=EDGE_LOOP('',(#130,#131,#132,#133));
#309=EDGE_LOOP('',(#134,#135,#136,#137,#138,#139));
#310=EDGE_LOOP('',(#140,#141,#142,#143));
#311=EDGE_LOOP('',(#144,#145,#146,#147,#148,#149));
#312=EDGE_LOOP('',(#150,#151,#152,#153));
#313=EDGE_LOOP('',(#154,#155,#156,#157));
#314=EDGE_LOOP('',(#158,#159,#160,#161,#162,#163,#164,#165,#166));
#315=EDGE_LOOP('',(#167,#168,#169,#170,#171,#172,#173,#174,#175));
#316=EDGE_LOOP('',(#176,#177,#178,#179));
#317=EDGE_LOOP('',(#180,#181,#182,#183));
#318=EDGE_LOOP('',(#184,#185,#186,#187));
#319=EDGE_LOOP('',(#188,#189,#190,#191));
#320=FACE_BOUND('',#293,.T.);
#321=FACE_BOUND('',#294,.T.);
#322=FACE_BOUND('',#295,.T.);
#323=FACE_BOUND('',#296,.T.);
#324=FACE_BOUND('',#297,.T.);
#325=FACE_BOUND('',#298,.T.);
#326=FACE_BOUND('',#299,.T.);
#327=FACE_BOUND('',#300,.T.);
#328=FACE_BOUND('',#301,.T.);
#329=FACE_BOUND('',#302,.T.);
#330=FACE_BOUND('',#303,.T.);
#331=FACE_BOUND('',#304,.T.);
#332=FACE_BOUND('',#305,.T.);
#333=FACE_BOUND('',#306,.T.);
#334=FACE_BOUND('',#307,.T.);
#335=FACE_BOUND('',#308,.T.);
#336=FACE_BOUND('',#309,.T.);
#337=FACE_BOUND('',#310,.T.);
#338=FACE_BOUND('',#311,.T.);
#339=FACE_BOUND('',#312,.T.);
#340=FACE_BOUND('',#313,.T.);
#341=FACE_BOUND('',#314,.T.);
#342=FACE_BOUND('',#315,.T.);
#343=FACE_BOUND('',#316,.T.);
#344=FACE_BOUND('',#317,.T.);
#345=FACE_BOUND('',#318,.T.);
#346=FACE_BOUND('',#319,.T.);
#347=PLANE('',#394);
#348=PLANE('',#397);
#349=PLANE('',#401);
#350=PLANE('',#409);
#351=PLANE('',#410);
#352=PLANE('',#411);
#353=PLANE('',#412);
#354=PLANE('',#415);
#355=PLANE('',#416);
#356=PLANE('',#419);
#357=PLANE('',#420);
#358=PLANE('',#421);
#359=PLANE('',#424);
#360=ADVANCED_FACE('',(#320,#321),#347,.T.);
#361=ADVANCED_FACE('',(#322),#348,.T.);
#362=ADVANCED_FACE('',(#323),#12,.T.);
#363=ADVANCED_FACE('',(#324),#349,.T.);
#364=ADVANCED_FACE('',(#325,#326),#13,.F.);
#365=ADVANCED_FACE('',(#327),#14,.T.);
#366=ADVANCED_FACE('',(#328,#329),#15,.F.);
#367=ADVANCED_FACE('',(#330,#331),#350,.T.);
#368=ADVANCED_FACE('',(#332,#333,#334),#351,.F.);
#369=ADVANCED_FACE('',(#335),#352,.F.);
#370=ADVANCED_FACE('',(#336),#353,.T.);
#371=ADVANCED_FACE('',(#337),#354,.T.);
#372=ADVANCED_FACE('',(#338),#355,.T.);
#373=ADVANCED_FACE('',(#339),#356,.F.);
#374=ADVANCED_FACE('',(#340),#357,.F.);
#375=ADVANCED_FACE('',(#341),#358,.T.);
#376=ADVANCED_FACE('',(#342),#359,.F.);
#377=ADVANCED_FACE('',(#343),#16,.T.);
#378=ADVANCED_FACE('',(#344),#17,.T.);
#379=ADVANCED_FACE('',(#345),#18,.T.);
#380=ADVANCED_FACE('',(#346),#19,.T.);
#381=CLOSED_SHELL('',(#360,#361,#362,#363,#364,#365,#366,#367,#368,#369,
#370,#371,#372,#373,#374,#375,#376,#377,#378,#379,#380));
#382=STYLED_ITEM('',(#383),#390);
#383=PRESENTATION_STYLE_ASSIGNMENT((#384));
#384=SURFACE_STYLE_USAGE(.BOTH.,#385);
#385=SURFACE_SIDE_STYLE('',(#386));
#386=SURFACE_STYLE_FILL_AREA(#387);
#387=FILL_AREA_STYLE('',(#388));
#388=FILL_AREA_STYLE_COLOUR('',#389);
#389=COLOUR_RGB('',0.917647058823529,0.917647058823529,0.917647058823529);
#390=MANIFOLD_SOLID_BREP('Part 4',#381);
#391=SHAPE_DEFINITION_REPRESENTATION(#655,#392);
#392=SHAPE_REPRESENTATION('Part 4',(#393),#650);
#393=AXIS2_PLACEMENT_3D('',#542,#431,#432);
#394=AXIS2_PLACEMENT_3D('',#543,#433,#434);
#395=AXIS2_PLACEMENT_3D('',#544,#435,#436);
#396=AXIS2_PLACEMENT_3D('',#553,#440,#441);
#397=AXIS2_PLACEMENT_3D('',#554,#442,#443);
#398=AXIS2_PLACEMENT_3D('',#564,#449,#450);
#399=AXIS2_PLACEMENT_3D('',#565,#451,#452);
#400=AXIS2_PLACEMENT_3D('',#569,#454,#455);
#401=AXIS2_PLACEMENT_3D('',#570,#456,#457);
#402=AXIS2_PLACEMENT_3D('',#577,#462,#463);
#403=AXIS2_PLACEMENT_3D('',#578,#464,#465);
#404=AXIS2_PLACEMENT_3D('',#580,#466,#467);
#405=AXIS2_PLACEMENT_3D('',#581,#468,#469);
#406=AXIS2_PLACEMENT_3D('',#582,#470,#471);
#407=AXIS2_PLACEMENT_3D('',#583,#472,#473);
#408=AXIS2_PLACEMENT_3D('',#585,#474,#475);
#409=AXIS2_PLACEMENT_3D('',#587,#476,#477);
#410=AXIS2_PLACEMENT_3D('',#589,#479,#480);
#411=AXIS2_PLACEMENT_3D('',#590,#481,#482);
#412=AXIS2_PLACEMENT_3D('',#596,#486,#487);
#413=AXIS2_PLACEMENT_3D('',#599,#489,#490);
#414=AXIS2_PLACEMENT_3D('',#603,#492,#493);
#415=AXIS2_PLACEMENT_3D('',#606,#495,#496);
#416=AXIS2_PLACEMENT_3D('',#612,#500,#501);
#417=AXIS2_PLACEMENT_3D('',#613,#502,#503);
#418=AXIS2_PLACEMENT_3D('',#621,#507,#508);
#419=AXIS2_PLACEMENT_3D('',#622,#509,#510);
#420=AXIS2_PLACEMENT_3D('',#628,#514,#515);
#421=AXIS2_PLACEMENT_3D('',#637,#520,#521);
#422=AXIS2_PLACEMENT_3D('',#639,#523,#524);
#423=AXIS2_PLACEMENT_3D('',#640,#525,#526);
#424=AXIS2_PLACEMENT_3D('',#641,#527,#528);
#425=AXIS2_PLACEMENT_3D('',#643,#530,#531);
#426=AXIS2_PLACEMENT_3D('',#644,#532,#533);
#427=AXIS2_PLACEMENT_3D('',#645,#534,#535);
#428=AXIS2_PLACEMENT_3D('',#646,#536,#537);
#429=AXIS2_PLACEMENT_3D('',#647,#538,#539);
#430=AXIS2_PLACEMENT_3D('',#648,#540,#541);
#431=DIRECTION('',(0.,0.,1.));
#432=DIRECTION('',(1.,0.,0.));
#433=DIRECTION('',(0.,0.,-1.));
#434=DIRECTION('',(1.,0.,0.));
#435=DIRECTION('',(0.,0.,1.));
#436=DIRECTION('',(1.,0.,0.));
#437=DIRECTION('',(1.,0.,0.));
#438=DIRECTION('',(0.,1.,0.));
#439=DIRECTION('',(-1.,0.,0.));
#440=DIRECTION('',(0.,0.,-1.));
#441=DIRECTION('',(1.,0.,0.));
#442=DIRECTION('',(0.,-1.,0.));
#443=DIRECTION('',(0.,0.,-1.));
#444=DIRECTION('',(1.,0.,0.));
#445=DIRECTION('',(0.,0.,1.));
#446=DIRECTION('',(1.,0.,0.));
#447=DIRECTION('',(-1.,0.,0.));
#448=DIRECTION('',(0.,0.,1.));
#449=DIRECTION('',(0.,0.,1.));
#450=DIRECTION('',(1.,0.,0.));
#451=DIRECTION('',(0.,0.,1.));
#452=DIRECTION('',(1.,0.,0.));
#453=DIRECTION('',(0.,0.,1.));
#454=DIRECTION('',(0.,0.,1.));
#455=DIRECTION('',(1.,0.,0.));
#456=DIRECTION('',(0.,1.,0.));
#457=DIRECTION('',(0.,0.,1.));
#458=DIRECTION('',(-1.,0.,0.));
#459=DIRECTION('',(-1.,0.,0.));
#460=DIRECTION('',(-1.,0.,0.));
#461=DIRECTION('',(0.,0.,1.));
#462=DIRECTION('',(0.,0.,1.));
#463=DIRECTION('',(1.,0.,0.));
#464=DIRECTION('',(0.,0.,1.));
#465=DIRECTION('',(1.,0.,0.));
#466=DIRECTION('',(0.,0.,1.));
#467=DIRECTION('',(1.,0.,0.));
#468=DIRECTION('',(0.,0.,-1.));
#469=DIRECTION('',(1.,0.,0.));
#470=DIRECTION('',(0.,0.,1.));
#471=DIRECTION('',(1.,0.,0.));
#472=DIRECTION('',(0.,0.,1.));
#473=DIRECTION('',(1.,0.,0.));
#474=DIRECTION('',(0.,0.,1.));
#475=DIRECTION('',(1.,0.,0.));
#476=DIRECTION('',(0.,0.,-1.));
#477=DIRECTION('',(1.,0.,0.));
#478=DIRECTION('',(0.,1.,0.));
#479=DIRECTION('',(0.,0.,-1.));
#480=DIRECTION('',(1.,0.,0.));
#481=DIRECTION('',(0.,-0.0854011413464358,-0.996346649041751));
#482=DIRECTION('',(0.,0.996346649041751,-0.0854011413464358));
#483=DIRECTION('',(0.,-0.996346649041751,0.0854011413464358));
#484=DIRECTION('',(-1.,0.,0.));
#485=DIRECTION('',(0.,-0.996346649041751,0.0854011413464358));
#486=DIRECTION('',(0.,-3.27924545167462E-17,1.));
#487=DIRECTION('',(0.,-1.,-3.27924545167462E-17));
#488=DIRECTION('',(0.,1.,3.27924545167462E-17));
#489=DIRECTION('',(0.,-3.27924545167462E-17,1.));
#490=DIRECTION('',(0.,-1.,-3.27924545167462E-17));
#491=DIRECTION('',(-1.,0.,0.));
#492=DIRECTION('',(0.,-3.27924545167462E-17,1.));
#493=DIRECTION('',(0.,-1.,-3.27924545167462E-17));
#494=DIRECTION('',(0.,1.,3.27924545167462E-17));
#495=DIRECTION('',(0.,-1.,0.));
#496=DIRECTION('',(0.,0.,-1.));
#497=DIRECTION('',(0.,0.,1.));
#498=DIRECTION('',(-1.,0.,0.));
#499=DIRECTION('',(0.,0.,1.));
#500=DIRECTION('',(0.,1.7347234759768E-16,-1.));
#501=DIRECTION('',(0.,1.,1.7347234759768E-16));
#502=DIRECTION('',(0.,1.7347234759768E-16,-1.));
#503=DIRECTION('',(0.,1.,1.7347234759768E-16));
#504=DIRECTION('',(0.,-1.,-1.7347234759768E-16));
#505=DIRECTION('',(-1.,0.,0.));
#506=DIRECTION('',(0.,-1.,-1.7347234759768E-16));
#507=DIRECTION('',(0.,1.7347234759768E-16,-1.));
#508=DIRECTION('',(0.,1.,1.7347234759768E-16));
#509=DIRECTION('',(0.,0.0854011413464357,0.996346649041751));
#510=DIRECTION('',(0.,-0.996346649041751,0.0854011413464357));
#511=DIRECTION('',(0.,0.996346649041751,-0.0854011413464357));
#512=DIRECTION('',(-1.,0.,0.));
#513=DIRECTION('',(0.,0.996346649041751,-0.0854011413464357));
#514=DIRECTION('',(0.,-2.89120579329468E-16,1.));
#515=DIRECTION('',(0.,-1.,-2.89120579329468E-16));
#516=DIRECTION('',(0.,1.,2.89120579329468E-16));
#517=DIRECTION('',(-1.,0.,0.));
#518=DIRECTION('',(0.,1.,2.89120579329468E-16));
#519=DIRECTION('',(-1.,0.,0.));
#520=DIRECTION('',(1.,0.,0.));
#521=DIRECTION('',(0.,1.,0.));
#522=DIRECTION('',(0.,0.,1.));
#523=DIRECTION('',(1.,0.,0.));
#524=DIRECTION('',(0.,0.,-1.));
#525=DIRECTION('',(1.,0.,0.));
#526=DIRECTION('',(0.,0.,-1.));
#527=DIRECTION('',(1.,0.,0.));
#528=DIRECTION('',(0.,1.,0.));
#529=DIRECTION('',(0.,0.,1.));
#530=DIRECTION('',(1.,0.,0.));
#531=DIRECTION('',(0.,0.,-1.));
#532=DIRECTION('',(1.,0.,0.));
#533=DIRECTION('',(0.,0.,-1.));
#534=DIRECTION('',(0.,0.,-1.));
#535=DIRECTION('',(-1.,0.,0.));
#536=DIRECTION('',(0.,0.,1.));
#537=DIRECTION('',(1.,0.,0.));
#538=DIRECTION('',(-1.,0.,0.));
#539=DIRECTION('',(0.,0.,1.));
#540=DIRECTION('',(1.,0.,0.));
#541=DIRECTION('',(0.,0.,-1.));
#542=CARTESIAN_POINT('',(0.,0.,0.));
#543=CARTESIAN_POINT('',(0.015,0.0275,-0.003));
#544=CARTESIAN_POINT('',(0.033,0.052,-0.003));
#545=CARTESIAN_POINT('',(0.0345,0.052,-0.003));
#546=CARTESIAN_POINT('',(0.015,0.049,-0.003));
#547=CARTESIAN_POINT('',(0.02,0.049,-0.003));
#548=CARTESIAN_POINT('',(0.033,0.049,-0.003));
#549=CARTESIAN_POINT('',(0.02,0.052,-0.003));
#550=CARTESIAN_POINT('',(0.02,0.055,-0.003));
#551=CARTESIAN_POINT('',(-0.0015,0.055,-0.003));
#552=CARTESIAN_POINT('',(0.033,0.055,-0.003));
#553=CARTESIAN_POINT('',(0.033,0.052,-0.003));
#554=CARTESIAN_POINT('',(0.015,0.049,-0.003));
#555=CARTESIAN_POINT('',(0.015,0.049,0.));
#556=CARTESIAN_POINT('',(-0.003,0.049,0.));
#557=CARTESIAN_POINT('',(0.033,0.049,0.));
#558=CARTESIAN_POINT('',(-0.003,0.049,-0.003));
#559=CARTESIAN_POINT('',(-0.003,0.049,-0.003));
#560=CARTESIAN_POINT('',(0.015,0.049,-0.003));
#561=CARTESIAN_POINT('',(0.01,0.049,-0.003));
#562=CARTESIAN_POINT('',(0.02,0.049,-0.003));
#563=CARTESIAN_POINT('',(0.033,0.049,-0.003));
#564=CARTESIAN_POINT('',(-0.003,0.052,-0.003));
#565=CARTESIAN_POINT('',(-0.003,0.052,0.));
#566=CARTESIAN_POINT('',(-0.003,0.055,0.));
#567=CARTESIAN_POINT('',(-0.003,0.055,-0.003));
#568=CARTESIAN_POINT('',(-0.003,0.055,-0.003));
#569=CARTESIAN_POINT('',(-0.003,0.052,-0.003));
#570=CARTESIAN_POINT('',(-0.0015,0.055,-0.003));
#571=CARTESIAN_POINT('',(0.01,0.055,-0.003));
#572=CARTESIAN_POINT('',(0.01,0.055,-0.003));
#573=CARTESIAN_POINT('',(-0.0015,0.055,-0.003));
#574=CARTESIAN_POINT('',(-0.0015,0.055,0.));
#575=CARTESIAN_POINT('',(0.033,0.055,0.));
#576=CARTESIAN_POINT('',(0.033,0.055,-0.003));
#577=CARTESIAN_POINT('',(0.033,0.052,-0.003));
#578=CARTESIAN_POINT('',(0.033,0.052,0.));
#579=CARTESIAN_POINT('',(0.0345,0.052,0.));
#580=CARTESIAN_POINT('',(0.033,0.052,-0.003));
#581=CARTESIAN_POINT('',(0.033,0.052,0.));
#582=CARTESIAN_POINT('',(-0.003,0.052,-0.003));
#583=CARTESIAN_POINT('',(-0.003,0.052,-0.003));
#584=CARTESIAN_POINT('',(-0.0015,0.052,-0.003));
#585=CARTESIAN_POINT('',(-0.003,0.052,0.));
#586=CARTESIAN_POINT('',(-0.0015,0.052,0.));
#587=CARTESIAN_POINT('',(0.015,0.0275,-0.003));
#588=CARTESIAN_POINT('',(0.01,0.052,-0.003));
#589=CARTESIAN_POINT('',(0.015,0.0275,0.));
#590=CARTESIAN_POINT('',(0.02,0.0315,-0.0015));
#591=CARTESIAN_POINT('',(0.01,0.0315,-0.0015));
#592=CARTESIAN_POINT('',(0.01,0.014,0.));
#593=CARTESIAN_POINT('',(0.02,0.014,0.));
#594=CARTESIAN_POINT('',(0.02,0.014,0.));
#595=CARTESIAN_POINT('',(0.02,0.0315,-0.0015));
#596=CARTESIAN_POINT('',(0.02,0.0115,-1.34859298205235E-19));
#597=CARTESIAN_POINT('',(0.01,0.0115,-1.34859298205235E-19));
#598=CARTESIAN_POINT('',(0.01,0.012,-1.18463070946862E-19));
#599=CARTESIAN_POINT('',(0.013,0.012,0.));
#600=CARTESIAN_POINT('',(0.013,0.009,-2.16840434497101E-19));
#601=CARTESIAN_POINT('',(0.02,0.009,-2.16840434497101E-19));
#602=CARTESIAN_POINT('',(0.017,0.009,-2.16840434497101E-19));
#603=CARTESIAN_POINT('',(0.017,0.012,-2.16840434497101E-19));
#604=CARTESIAN_POINT('',(0.02,0.012,-1.18463070946862E-19));
#605=CARTESIAN_POINT('',(0.02,0.0115,-1.34859298205235E-19));
#606=CARTESIAN_POINT('',(0.02,0.009,-0.0015));
#607=CARTESIAN_POINT('',(0.013,0.009,-0.003));
#608=CARTESIAN_POINT('',(0.013,0.009,-0.003));
#609=CARTESIAN_POINT('',(0.02,0.009,-0.003));
#610=CARTESIAN_POINT('',(0.017,0.009,-0.003));
#611=CARTESIAN_POINT('',(0.017,0.009,-0.0015));
#612=CARTESIAN_POINT('',(0.02,0.0115,-0.003));
#613=CARTESIAN_POINT('',(0.013,0.012,-0.003));
#614=CARTESIAN_POINT('',(0.01,0.012,-0.003));
#615=CARTESIAN_POINT('',(0.01,0.0115,-0.003));
#616=CARTESIAN_POINT('',(0.01,0.014,-0.003));
#617=CARTESIAN_POINT('',(0.02,0.014,-0.003));
#618=CARTESIAN_POINT('',(0.02,0.014,-0.003));
#619=CARTESIAN_POINT('',(0.02,0.0115,-0.003));
#620=CARTESIAN_POINT('',(0.02,0.012,-0.003));
#621=CARTESIAN_POINT('',(0.017,0.012,-0.003));
#622=CARTESIAN_POINT('',(0.02,0.0315,-0.0045));
#623=CARTESIAN_POINT('',(0.01,0.0315,-0.0045));
#624=CARTESIAN_POINT('',(0.01,0.0488721327164613,-0.00598903994712525));
#625=CARTESIAN_POINT('',(0.02,0.0488721327164613,-0.00598903994712525));
#626=CARTESIAN_POINT('',(0.02,0.0488721327164613,-0.00598903994712525));
#627=CARTESIAN_POINT('',(0.02,0.0315,-0.0045));
#628=CARTESIAN_POINT('',(0.02,0.052,-0.006));
#629=CARTESIAN_POINT('',(0.02,0.052,-0.006));
#630=CARTESIAN_POINT('',(0.02,0.0491283361405006,-0.006));
#631=CARTESIAN_POINT('',(0.02,0.052,-0.006));
#632=CARTESIAN_POINT('',(0.02,0.0491283361405006,-0.006));
#633=CARTESIAN_POINT('',(0.01,0.0491283361405006,-0.006));
#634=CARTESIAN_POINT('',(0.01,0.052,-0.006));
#635=CARTESIAN_POINT('',(0.01,0.052,-0.006));
#636=CARTESIAN_POINT('',(0.02,0.052,-0.006));
#637=CARTESIAN_POINT('',(0.02,0.032,-0.003));
#638=CARTESIAN_POINT('',(0.02,0.012,-0.003));
#639=CARTESIAN_POINT('',(0.02,0.0491283361405006,-0.003));
#640=CARTESIAN_POINT('',(0.02,0.052,-0.003));
#641=CARTESIAN_POINT('',(0.01,0.032,-0.003));
#642=CARTESIAN_POINT('',(0.01,0.012,0.));
#643=CARTESIAN_POINT('',(0.01,0.052,-0.003));
#644=CARTESIAN_POINT('',(0.01,0.0491283361405006,-0.003));
#645=CARTESIAN_POINT('',(0.013,0.012,-0.003));
#646=CARTESIAN_POINT('',(0.017,0.012,-0.0015));
#647=CARTESIAN_POINT('',(0.02,0.0491283361405006,-0.003));
#648=CARTESIAN_POINT('',(-0.0015,0.052,-0.003));
#649=MECHANICAL_DESIGN_GEOMETRIC_PRESENTATION_REPRESENTATION('',(#382),
#650);
#650=(
GEOMETRIC_REPRESENTATION_CONTEXT(3)
GLOBAL_UNCERTAINTY_ASSIGNED_CONTEXT((#651))
GLOBAL_UNIT_ASSIGNED_CONTEXT((#654,#653,#652))
REPRESENTATION_CONTEXT('Part 4','TOP_LEVEL_ASSEMBLY_PART')
);
#651=UNCERTAINTY_MEASURE_WITH_UNIT(LENGTH_MEASURE(1.E-8),#654,
'DISTANCE_ACCURACY_VALUE','Maximum Tolerance applied to model');
#652=(
NAMED_UNIT(*)
SI_UNIT($,.STERADIAN.)
SOLID_ANGLE_UNIT()
);
#653=(
NAMED_UNIT(*)
PLANE_ANGLE_UNIT()
SI_UNIT($,.RADIAN.)
);
#654=(
LENGTH_UNIT()
NAMED_UNIT(*)
SI_UNIT($,.METRE.)
);
#655=PRODUCT_DEFINITION_SHAPE('','',#656);
#656=PRODUCT_DEFINITION('','',#658,#657);
#657=PRODUCT_DEFINITION_CONTEXT('',#664,'design');
#658=PRODUCT_DEFINITION_FORMATION_WITH_SPECIFIED_SOURCE('','',#660,
 .NOT_KNOWN.);
#659=PRODUCT_RELATED_PRODUCT_CATEGORY('','',(#660));
#660=PRODUCT('Part 4','Part 4','Part 4',(#662));
#661=PRODUCT_CATEGORY('','');
#662=PRODUCT_CONTEXT('',#664,'mechanical');
#663=APPLICATION_PROTOCOL_DEFINITION('international standard',
'ap242_managed_model_based_3d_engineering',2020,#664);
#664=APPLICATION_CONTEXT('managed model based 3d engineering');
ENDSEC;
END-ISO-10303-21;
