ISO-10303-21;
HEADER;
/* Generated by software containing ST-Developer
 * from STEP Tools, Inc. (www.steptools.com) 
 */
/* OPTION: using custom renumber hook */

FILE_DESCRIPTION(
/* description */ ('STEP AP242 Edition 2',
'CAx-IF Rec.Pracs.---Representation and Presentation of Product Manufa
cturing Information (PMI)---4.0---2014-10-13',
'CAx-IF Rec.Pracs.---3D Tessellated Geometry---0.4---2014-09-14','2;1',
'CAx-IF Rec.Pracs.---User Defined Attributes---1.5---2016-08-15'),
/* implementation_level */ '2;1');

FILE_NAME(
/* name */ 'Part Studio 1 - Part 2',
/* time_stamp */ '2026-07-21T21:13:09Z',
/* author */ (''),
/* organization */ (''),
/* preprocessor_version */ 'ST-DEVELOPER v20',
/* originating_system */ 'ONSHAPE BY PTC INC, 1.218',
/* authorisation */ '  ');

FILE_SCHEMA (('AP242_MANAGED_MODEL_BASED_3D_ENGINEERING_MIM_LF { 1 0 10303 442 3 1 4 }'));
ENDSEC;

DATA;
#10=SHAPE_REPRESENTATION_RELATIONSHIP('','',#451,#11);
#11=ADVANCED_BREP_SHAPE_REPRESENTATION('',(#449),#767);
#12=CIRCLE('',#455,0.003);
#13=CIRCLE('',#456,0.003);
#14=CIRCLE('',#459,0.003);
#15=CIRCLE('',#460,0.003);
#16=CIRCLE('',#463,0.003);
#17=CIRCLE('',#464,0.003);
#18=CIRCLE('',#468,0.0035);
#19=CIRCLE('',#469,0.0035);
#20=CIRCLE('',#472,0.004);
#21=CIRCLE('',#473,0.004);
#22=CIRCLE('',#475,0.01);
#23=CIRCLE('',#476,0.01);
#24=CIRCLE('',#478,0.003);
#25=CIRCLE('',#479,0.003);
#26=CIRCLE('',#481,0.0015);
#27=CIRCLE('',#482,0.0015);
#28=CIRCLE('',#483,0.0015);
#29=CIRCLE('',#484,0.0015);
#30=CIRCLE('',#485,0.003);
#31=CIRCLE('',#486,0.003);
#32=CIRCLE('',#487,0.003);
#33=CIRCLE('',#488,0.003);
#34=CIRCLE('',#490,0.0015);
#35=CIRCLE('',#491,0.0015);
#36=CIRCLE('',#492,0.0015);
#37=CIRCLE('',#493,0.0015);
#38=CIRCLE('',#494,0.003);
#39=CIRCLE('',#495,0.003);
#40=CIRCLE('',#496,0.003);
#41=CIRCLE('',#497,0.003);
#42=CYLINDRICAL_SURFACE('',#454,0.003);
#43=CYLINDRICAL_SURFACE('',#458,0.003);
#44=CYLINDRICAL_SURFACE('',#462,0.003);
#45=CYLINDRICAL_SURFACE('',#467,0.0035);
#46=CYLINDRICAL_SURFACE('',#471,0.004);
#47=CYLINDRICAL_SURFACE('',#474,0.01);
#48=CYLINDRICAL_SURFACE('',#477,0.003);
#49=CYLINDRICAL_SURFACE('',#498,0.0015);
#50=CYLINDRICAL_SURFACE('',#499,0.0015);
#51=CYLINDRICAL_SURFACE('',#500,0.0015);
#52=CYLINDRICAL_SURFACE('',#501,0.0015);
#53=CYLINDRICAL_SURFACE('',#502,0.003);
#54=CYLINDRICAL_SURFACE('',#503,0.003);
#55=CYLINDRICAL_SURFACE('',#504,0.003);
#56=CYLINDRICAL_SURFACE('',#505,0.003);
#57=ORIENTED_EDGE('',*,*,#173,.F.);
#58=ORIENTED_EDGE('',*,*,#174,.F.);
#59=ORIENTED_EDGE('',*,*,#175,.T.);
#60=ORIENTED_EDGE('',*,*,#176,.T.);
#61=ORIENTED_EDGE('',*,*,#177,.T.);
#62=ORIENTED_EDGE('',*,*,#178,.F.);
#63=ORIENTED_EDGE('',*,*,#179,.F.);
#64=ORIENTED_EDGE('',*,*,#174,.T.);
#65=ORIENTED_EDGE('',*,*,#180,.T.);
#66=ORIENTED_EDGE('',*,*,#181,.T.);
#67=ORIENTED_EDGE('',*,*,#182,.F.);
#68=ORIENTED_EDGE('',*,*,#183,.T.);
#69=ORIENTED_EDGE('',*,*,#184,.F.);
#70=ORIENTED_EDGE('',*,*,#185,.F.);
#71=ORIENTED_EDGE('',*,*,#186,.T.);
#72=ORIENTED_EDGE('',*,*,#187,.T.);
#73=ORIENTED_EDGE('',*,*,#188,.T.);
#74=ORIENTED_EDGE('',*,*,#189,.F.);
#75=ORIENTED_EDGE('',*,*,#190,.F.);
#76=ORIENTED_EDGE('',*,*,#185,.T.);
#77=ORIENTED_EDGE('',*,*,#191,.T.);
#78=ORIENTED_EDGE('',*,*,#192,.F.);
#79=ORIENTED_EDGE('',*,*,#193,.F.);
#80=ORIENTED_EDGE('',*,*,#189,.T.);
#81=ORIENTED_EDGE('',*,*,#194,.F.);
#82=ORIENTED_EDGE('',*,*,#195,.T.);
#83=ORIENTED_EDGE('',*,*,#196,.T.);
#84=ORIENTED_EDGE('',*,*,#197,.T.);
#85=ORIENTED_EDGE('',*,*,#198,.F.);
#86=ORIENTED_EDGE('',*,*,#199,.F.);
#87=ORIENTED_EDGE('',*,*,#200,.T.);
#88=ORIENTED_EDGE('',*,*,#201,.T.);
#89=ORIENTED_EDGE('',*,*,#202,.F.);
#90=ORIENTED_EDGE('',*,*,#203,.F.);
#91=ORIENTED_EDGE('',*,*,#204,.T.);
#92=ORIENTED_EDGE('',*,*,#199,.T.);
#93=ORIENTED_EDGE('',*,*,#205,.F.);
#94=ORIENTED_EDGE('',*,*,#206,.F.);
#95=ORIENTED_EDGE('',*,*,#207,.T.);
#96=ORIENTED_EDGE('',*,*,#203,.T.);
#97=ORIENTED_EDGE('',*,*,#208,.T.);
#98=ORIENTED_EDGE('',*,*,#209,.F.);
#99=ORIENTED_EDGE('',*,*,#210,.F.);
#100=ORIENTED_EDGE('',*,*,#201,.F.);
#101=ORIENTED_EDGE('',*,*,#211,.T.);
#102=ORIENTED_EDGE('',*,*,#206,.T.);
#103=ORIENTED_EDGE('',*,*,#212,.F.);
#104=ORIENTED_EDGE('',*,*,#176,.F.);
#105=ORIENTED_EDGE('',*,*,#213,.T.);
#106=ORIENTED_EDGE('',*,*,#214,.T.);
#107=ORIENTED_EDGE('',*,*,#215,.F.);
#108=ORIENTED_EDGE('',*,*,#216,.F.);
#109=ORIENTED_EDGE('',*,*,#217,.F.);
#110=ORIENTED_EDGE('',*,*,#218,.F.);
#111=ORIENTED_EDGE('',*,*,#200,.F.);
#112=ORIENTED_EDGE('',*,*,#204,.F.);
#113=ORIENTED_EDGE('',*,*,#207,.F.);
#114=ORIENTED_EDGE('',*,*,#211,.F.);
#115=ORIENTED_EDGE('',*,*,#208,.F.);
#116=ORIENTED_EDGE('',*,*,#175,.F.);
#117=ORIENTED_EDGE('',*,*,#179,.T.);
#118=ORIENTED_EDGE('',*,*,#219,.T.);
#119=ORIENTED_EDGE('',*,*,#182,.T.);
#120=ORIENTED_EDGE('',*,*,#220,.T.);
#121=ORIENTED_EDGE('',*,*,#186,.F.);
#122=ORIENTED_EDGE('',*,*,#190,.T.);
#123=ORIENTED_EDGE('',*,*,#193,.T.);
#124=ORIENTED_EDGE('',*,*,#221,.T.);
#125=ORIENTED_EDGE('',*,*,#196,.F.);
#126=ORIENTED_EDGE('',*,*,#222,.T.);
#127=ORIENTED_EDGE('',*,*,#213,.F.);
#128=ORIENTED_EDGE('',*,*,#223,.T.);
#129=ORIENTED_EDGE('',*,*,#224,.T.);
#130=ORIENTED_EDGE('',*,*,#225,.T.);
#131=ORIENTED_EDGE('',*,*,#226,.T.);
#132=ORIENTED_EDGE('',*,*,#198,.T.);
#133=ORIENTED_EDGE('',*,*,#210,.T.);
#134=ORIENTED_EDGE('',*,*,#205,.T.);
#135=ORIENTED_EDGE('',*,*,#202,.T.);
#136=ORIENTED_EDGE('',*,*,#209,.T.);
#137=ORIENTED_EDGE('',*,*,#173,.T.);
#138=ORIENTED_EDGE('',*,*,#212,.T.);
#139=ORIENTED_EDGE('',*,*,#227,.T.);
#140=ORIENTED_EDGE('',*,*,#194,.T.);
#141=ORIENTED_EDGE('',*,*,#228,.T.);
#142=ORIENTED_EDGE('',*,*,#191,.F.);
#143=ORIENTED_EDGE('',*,*,#188,.F.);
#144=ORIENTED_EDGE('',*,*,#184,.T.);
#145=ORIENTED_EDGE('',*,*,#229,.T.);
#146=ORIENTED_EDGE('',*,*,#180,.F.);
#147=ORIENTED_EDGE('',*,*,#230,.T.);
#148=ORIENTED_EDGE('',*,*,#177,.F.);
#149=ORIENTED_EDGE('',*,*,#218,.T.);
#150=ORIENTED_EDGE('',*,*,#226,.F.);
#151=ORIENTED_EDGE('',*,*,#217,.T.);
#152=ORIENTED_EDGE('',*,*,#225,.F.);
#153=ORIENTED_EDGE('',*,*,#216,.T.);
#154=ORIENTED_EDGE('',*,*,#224,.F.);
#155=ORIENTED_EDGE('',*,*,#215,.T.);
#156=ORIENTED_EDGE('',*,*,#223,.F.);
#157=ORIENTED_EDGE('',*,*,#222,.F.);
#158=ORIENTED_EDGE('',*,*,#195,.F.);
#159=ORIENTED_EDGE('',*,*,#227,.F.);
#160=ORIENTED_EDGE('',*,*,#214,.F.);
#161=ORIENTED_EDGE('',*,*,#221,.F.);
#162=ORIENTED_EDGE('',*,*,#192,.T.);
#163=ORIENTED_EDGE('',*,*,#228,.F.);
#164=ORIENTED_EDGE('',*,*,#197,.F.);
#165=ORIENTED_EDGE('',*,*,#220,.F.);
#166=ORIENTED_EDGE('',*,*,#181,.F.);
#167=ORIENTED_EDGE('',*,*,#229,.F.);
#168=ORIENTED_EDGE('',*,*,#187,.F.);
#169=ORIENTED_EDGE('',*,*,#219,.F.);
#170=ORIENTED_EDGE('',*,*,#178,.T.);
#171=ORIENTED_EDGE('',*,*,#230,.F.);
#172=ORIENTED_EDGE('',*,*,#183,.F.);
#173=EDGE_CURVE('',#231,#232,#273,.T.);
#174=EDGE_CURVE('',#233,#231,#274,.T.);
#175=EDGE_CURVE('',#233,#234,#275,.T.);
#176=EDGE_CURVE('',#234,#232,#276,.T.);
#177=EDGE_CURVE('',#231,#235,#12,.T.);
#178=EDGE_CURVE('',#236,#235,#277,.T.);
#179=EDGE_CURVE('',#233,#236,#13,.T.);
#180=EDGE_CURVE('',#237,#238,#278,.T.);
#181=EDGE_CURVE('',#238,#239,#279,.F.);
#182=EDGE_CURVE('',#240,#239,#280,.T.);
#183=EDGE_CURVE('',#240,#237,#281,.T.);
#184=EDGE_CURVE('',#241,#242,#14,.T.);
#185=EDGE_CURVE('',#243,#241,#282,.T.);
#186=EDGE_CURVE('',#243,#244,#15,.T.);
#187=EDGE_CURVE('',#244,#242,#283,.T.);
#188=EDGE_CURVE('',#241,#245,#284,.T.);
#189=EDGE_CURVE('',#246,#245,#285,.T.);
#190=EDGE_CURVE('',#243,#246,#286,.T.);
#191=EDGE_CURVE('',#245,#247,#16,.T.);
#192=EDGE_CURVE('',#248,#247,#287,.T.);
#193=EDGE_CURVE('',#246,#248,#17,.T.);
#194=EDGE_CURVE('',#249,#250,#288,.T.);
#195=EDGE_CURVE('',#249,#251,#289,.F.);
#196=EDGE_CURVE('',#251,#252,#290,.T.);
#197=EDGE_CURVE('',#252,#250,#291,.T.);
#198=EDGE_CURVE('',#253,#254,#292,.T.);
#199=EDGE_CURVE('',#255,#253,#293,.T.);
#200=EDGE_CURVE('',#255,#256,#294,.T.);
#201=EDGE_CURVE('',#256,#254,#295,.T.);
#202=EDGE_CURVE('',#257,#253,#18,.T.);
#203=EDGE_CURVE('',#258,#257,#296,.T.);
#204=EDGE_CURVE('',#258,#255,#19,.T.);
#205=EDGE_CURVE('',#259,#257,#297,.T.);
#206=EDGE_CURVE('',#260,#259,#298,.T.);
#207=EDGE_CURVE('',#260,#258,#299,.T.);
#208=EDGE_CURVE('',#261,#261,#20,.T.);
#209=EDGE_CURVE('',#262,#262,#21,.T.);
#210=EDGE_CURVE('',#254,#259,#22,.T.);
#211=EDGE_CURVE('',#256,#260,#23,.T.);
#212=EDGE_CURVE('',#232,#263,#24,.T.);
#213=EDGE_CURVE('',#234,#264,#25,.T.);
#214=EDGE_CURVE('',#264,#263,#300,.T.);
#215=EDGE_CURVE('',#265,#265,#26,.T.);
#216=EDGE_CURVE('',#266,#266,#27,.T.);
#217=EDGE_CURVE('',#267,#267,#28,.T.);
#218=EDGE_CURVE('',#268,#268,#29,.T.);
#219=EDGE_CURVE('',#236,#240,#30,.F.);
#220=EDGE_CURVE('',#239,#244,#31,.F.);
#221=EDGE_CURVE('',#248,#252,#32,.F.);
#222=EDGE_CURVE('',#251,#264,#33,.F.);
#223=EDGE_CURVE('',#269,#269,#34,.T.);
#224=EDGE_CURVE('',#270,#270,#35,.T.);
#225=EDGE_CURVE('',#271,#271,#36,.T.);
#226=EDGE_CURVE('',#272,#272,#37,.T.);
#227=EDGE_CURVE('',#263,#249,#38,.T.);
#228=EDGE_CURVE('',#250,#247,#39,.T.);
#229=EDGE_CURVE('',#242,#238,#40,.T.);
#230=EDGE_CURVE('',#237,#235,#41,.T.);
#231=VERTEX_POINT('',#645);
#232=VERTEX_POINT('',#646);
#233=VERTEX_POINT('',#648);
#234=VERTEX_POINT('',#650);
#235=VERTEX_POINT('',#654);
#236=VERTEX_POINT('',#656);
#237=VERTEX_POINT('',#660);
#238=VERTEX_POINT('',#661);
#239=VERTEX_POINT('',#663);
#240=VERTEX_POINT('',#665);
#241=VERTEX_POINT('',#669);
#242=VERTEX_POINT('',#670);
#243=VERTEX_POINT('',#672);
#244=VERTEX_POINT('',#674);
#245=VERTEX_POINT('',#678);
#246=VERTEX_POINT('',#680);
#247=VERTEX_POINT('',#684);
#248=VERTEX_POINT('',#686);
#249=VERTEX_POINT('',#690);
#250=VERTEX_POINT('',#691);
#251=VERTEX_POINT('',#693);
#252=VERTEX_POINT('',#695);
#253=VERTEX_POINT('',#699);
#254=VERTEX_POINT('',#700);
#255=VERTEX_POINT('',#702);
#256=VERTEX_POINT('',#704);
#257=VERTEX_POINT('',#708);
#258=VERTEX_POINT('',#710);
#259=VERTEX_POINT('',#714);
#260=VERTEX_POINT('',#716);
#261=VERTEX_POINT('',#720);
#262=VERTEX_POINT('',#722);
#263=VERTEX_POINT('',#728);
#264=VERTEX_POINT('',#730);
#265=VERTEX_POINT('',#734);
#266=VERTEX_POINT('',#736);
#267=VERTEX_POINT('',#738);
#268=VERTEX_POINT('',#740);
#269=VERTEX_POINT('',#747);
#270=VERTEX_POINT('',#749);
#271=VERTEX_POINT('',#751);
#272=VERTEX_POINT('',#753);
#273=LINE('',#644,#301);
#274=LINE('',#647,#302);
#275=LINE('',#649,#303);
#276=LINE('',#651,#304);
#277=LINE('',#655,#305);
#278=LINE('',#659,#306);
#279=LINE('',#662,#307);
#280=LINE('',#664,#308);
#281=LINE('',#666,#309);
#282=LINE('',#671,#310);
#283=LINE('',#675,#311);
#284=LINE('',#677,#312);
#285=LINE('',#679,#313);
#286=LINE('',#681,#314);
#287=LINE('',#685,#315);
#288=LINE('',#689,#316);
#289=LINE('',#692,#317);
#290=LINE('',#694,#318);
#291=LINE('',#696,#319);
#292=LINE('',#698,#320);
#293=LINE('',#701,#321);
#294=LINE('',#703,#322);
#295=LINE('',#705,#323);
#296=LINE('',#709,#324);
#297=LINE('',#713,#325);
#298=LINE('',#715,#326);
#299=LINE('',#717,#327);
#300=LINE('',#731,#328);
#301=VECTOR('',#510,1.);
#302=VECTOR('',#511,1.);
#303=VECTOR('',#512,1.);
#304=VECTOR('',#513,1.);
#305=VECTOR('',#518,1.);
#306=VECTOR('',#523,1.);
#307=VECTOR('',#524,1.);
#308=VECTOR('',#525,1.);
#309=VECTOR('',#526,1.);
#310=VECTOR('',#531,1.);
#311=VECTOR('',#534,1.);
#312=VECTOR('',#537,1.);
#313=VECTOR('',#538,1.);
#314=VECTOR('',#539,1.);
#315=VECTOR('',#544,1.);
#316=VECTOR('',#549,1.);
#317=VECTOR('',#550,1.);
#318=VECTOR('',#551,1.);
#319=VECTOR('',#552,1.);
#320=VECTOR('',#555,1.);
#321=VECTOR('',#556,1.);
#322=VECTOR('',#557,1.);
#323=VECTOR('',#558,1.);
#324=VECTOR('',#563,1.);
#325=VECTOR('',#568,1.);
#326=VECTOR('',#569,1.);
#327=VECTOR('',#570,1.);
#328=VECTOR('',#589,1.);
#329=EDGE_LOOP('',(#57,#58,#59,#60));
#330=EDGE_LOOP('',(#61,#62,#63,#64));
#331=EDGE_LOOP('',(#65,#66,#67,#68));
#332=EDGE_LOOP('',(#69,#70,#71,#72));
#333=EDGE_LOOP('',(#73,#74,#75,#76));
#334=EDGE_LOOP('',(#77,#78,#79,#80));
#335=EDGE_LOOP('',(#81,#82,#83,#84));
#336=EDGE_LOOP('',(#85,#86,#87,#88));
#337=EDGE_LOOP('',(#89,#90,#91,#92));
#338=EDGE_LOOP('',(#93,#94,#95,#96));
#339=EDGE_LOOP('',(#97));
#340=EDGE_LOOP('',(#98));
#341=EDGE_LOOP('',(#99,#100,#101,#102));
#342=EDGE_LOOP('',(#103,#104,#105,#106));
#343=EDGE_LOOP('',(#107));
#344=EDGE_LOOP('',(#108));
#345=EDGE_LOOP('',(#109));
#346=EDGE_LOOP('',(#110));
#347=EDGE_LOOP('',(#111,#112,#113,#114));
#348=EDGE_LOOP('',(#115));
#349=EDGE_LOOP('',(#116,#117,#118,#119,#120,#121,#122,#123,#124,#125,#126,
#127));
#350=EDGE_LOOP('',(#128));
#351=EDGE_LOOP('',(#129));
#352=EDGE_LOOP('',(#130));
#353=EDGE_LOOP('',(#131));
#354=EDGE_LOOP('',(#132,#133,#134,#135));
#355=EDGE_LOOP('',(#136));
#356=EDGE_LOOP('',(#137,#138,#139,#140,#141,#142,#143,#144,#145,#146,#147,
#148));
#357=EDGE_LOOP('',(#149));
#358=EDGE_LOOP('',(#150));
#359=EDGE_LOOP('',(#151));
#360=EDGE_LOOP('',(#152));
#361=EDGE_LOOP('',(#153));
#362=EDGE_LOOP('',(#154));
#363=EDGE_LOOP('',(#155));
#364=EDGE_LOOP('',(#156));
#365=EDGE_LOOP('',(#157,#158,#159,#160));
#366=EDGE_LOOP('',(#161,#162,#163,#164));
#367=EDGE_LOOP('',(#165,#166,#167,#168));
#368=EDGE_LOOP('',(#169,#170,#171,#172));
#369=FACE_BOUND('',#329,.T.);
#370=FACE_BOUND('',#330,.T.);
#371=FACE_BOUND('',#331,.T.);
#372=FACE_BOUND('',#332,.T.);
#373=FACE_BOUND('',#333,.T.);
#374=FACE_BOUND('',#334,.T.);
#375=FACE_BOUND('',#335,.T.);
#376=FACE_BOUND('',#336,.T.);
#377=FACE_BOUND('',#337,.T.);
#378=FACE_BOUND('',#338,.T.);
#379=FACE_BOUND('',#339,.T.);
#380=FACE_BOUND('',#340,.T.);
#381=FACE_BOUND('',#341,.T.);
#382=FACE_BOUND('',#342,.T.);
#383=FACE_BOUND('',#343,.T.);
#384=FACE_BOUND('',#344,.T.);
#385=FACE_BOUND('',#345,.T.);
#386=FACE_BOUND('',#346,.T.);
#387=FACE_BOUND('',#347,.T.);
#388=FACE_BOUND('',#348,.T.);
#389=FACE_BOUND('',#349,.T.);
#390=FACE_BOUND('',#350,.T.);
#391=FACE_BOUND('',#351,.T.);
#392=FACE_BOUND('',#352,.T.);
#393=FACE_BOUND('',#353,.T.);
#394=FACE_BOUND('',#354,.T.);
#395=FACE_BOUND('',#355,.T.);
#396=FACE_BOUND('',#356,.T.);
#397=FACE_BOUND('',#357,.T.);
#398=FACE_BOUND('',#358,.T.);
#399=FACE_BOUND('',#359,.T.);
#400=FACE_BOUND('',#360,.T.);
#401=FACE_BOUND('',#361,.T.);
#402=FACE_BOUND('',#362,.T.);
#403=FACE_BOUND('',#363,.T.);
#404=FACE_BOUND('',#364,.T.);
#405=FACE_BOUND('',#365,.T.);
#406=FACE_BOUND('',#366,.T.);
#407=FACE_BOUND('',#367,.T.);
#408=FACE_BOUND('',#368,.T.);
#409=PLANE('',#453);
#410=PLANE('',#457);
#411=PLANE('',#461);
#412=PLANE('',#465);
#413=PLANE('',#466);
#414=PLANE('',#470);
#415=PLANE('',#480);
#416=PLANE('',#489);
#417=ADVANCED_FACE('',(#369),#409,.T.);
#418=ADVANCED_FACE('',(#370),#42,.T.);
#419=ADVANCED_FACE('',(#371),#410,.F.);
#420=ADVANCED_FACE('',(#372),#43,.T.);
#421=ADVANCED_FACE('',(#373),#411,.F.);
#422=ADVANCED_FACE('',(#374),#44,.T.);
#423=ADVANCED_FACE('',(#375),#412,.T.);
#424=ADVANCED_FACE('',(#376),#413,.T.);
#425=ADVANCED_FACE('',(#377),#45,.F.);
#426=ADVANCED_FACE('',(#378),#414,.T.);
#427=ADVANCED_FACE('',(#379,#380),#46,.F.);
#428=ADVANCED_FACE('',(#381),#47,.F.);
#429=ADVANCED_FACE('',(#382),#48,.T.);
#430=ADVANCED_FACE('',(#383,#384,#385,#386,#387,#388,#389),#415,.T.);
#431=ADVANCED_FACE('',(#390,#391,#392,#393,#394,#395,#396),#416,.F.);
#432=ADVANCED_FACE('',(#397,#398),#49,.F.);
#433=ADVANCED_FACE('',(#399,#400),#50,.F.);
#434=ADVANCED_FACE('',(#401,#402),#51,.F.);
#435=ADVANCED_FACE('',(#403,#404),#52,.F.);
#436=ADVANCED_FACE('',(#405),#53,.F.);
#437=ADVANCED_FACE('',(#406),#54,.F.);
#438=ADVANCED_FACE('',(#407),#55,.F.);
#439=ADVANCED_FACE('',(#408),#56,.F.);
#440=CLOSED_SHELL('',(#417,#418,#419,#420,#421,#422,#423,#424,#425,#426,
#427,#428,#429,#430,#431,#432,#433,#434,#435,#436,#437,#438,#439));
#441=STYLED_ITEM('',(#442),#449);
#442=PRESENTATION_STYLE_ASSIGNMENT((#443));
#443=SURFACE_STYLE_USAGE(.BOTH.,#444);
#444=SURFACE_SIDE_STYLE('',(#445));
#445=SURFACE_STYLE_FILL_AREA(#446);
#446=FILL_AREA_STYLE('',(#447));
#447=FILL_AREA_STYLE_COLOUR('',#448);
#448=COLOUR_RGB('',0.647058823529412,0.647058823529412,0.647058823529412);
#449=MANIFOLD_SOLID_BREP('Part 2',#440);
#450=SHAPE_DEFINITION_REPRESENTATION(#772,#451);
#451=SHAPE_REPRESENTATION('Part 2',(#452),#767);
#452=AXIS2_PLACEMENT_3D('',#642,#506,#507);
#453=AXIS2_PLACEMENT_3D('',#643,#508,#509);
#454=AXIS2_PLACEMENT_3D('',#652,#514,#515);
#455=AXIS2_PLACEMENT_3D('',#653,#516,#517);
#456=AXIS2_PLACEMENT_3D('',#657,#519,#520);
#457=AXIS2_PLACEMENT_3D('',#658,#521,#522);
#458=AXIS2_PLACEMENT_3D('',#667,#527,#528);
#459=AXIS2_PLACEMENT_3D('',#668,#529,#530);
#460=AXIS2_PLACEMENT_3D('',#673,#532,#533);
#461=AXIS2_PLACEMENT_3D('',#676,#535,#536);
#462=AXIS2_PLACEMENT_3D('',#682,#540,#541);
#463=AXIS2_PLACEMENT_3D('',#683,#542,#543);
#464=AXIS2_PLACEMENT_3D('',#687,#545,#546);
#465=AXIS2_PLACEMENT_3D('',#688,#547,#548);
#466=AXIS2_PLACEMENT_3D('',#697,#553,#554);
#467=AXIS2_PLACEMENT_3D('',#706,#559,#560);
#468=AXIS2_PLACEMENT_3D('',#707,#561,#562);
#469=AXIS2_PLACEMENT_3D('',#711,#564,#565);
#470=AXIS2_PLACEMENT_3D('',#712,#566,#567);
#471=AXIS2_PLACEMENT_3D('',#718,#571,#572);
#472=AXIS2_PLACEMENT_3D('',#719,#573,#574);
#473=AXIS2_PLACEMENT_3D('',#721,#575,#576);
#474=AXIS2_PLACEMENT_3D('',#723,#577,#578);
#475=AXIS2_PLACEMENT_3D('',#724,#579,#580);
#476=AXIS2_PLACEMENT_3D('',#725,#581,#582);
#477=AXIS2_PLACEMENT_3D('',#726,#583,#584);
#478=AXIS2_PLACEMENT_3D('',#727,#585,#586);
#479=AXIS2_PLACEMENT_3D('',#729,#587,#588);
#480=AXIS2_PLACEMENT_3D('',#732,#590,#591);
#481=AXIS2_PLACEMENT_3D('',#733,#592,#593);
#482=AXIS2_PLACEMENT_3D('',#735,#594,#595);
#483=AXIS2_PLACEMENT_3D('',#737,#596,#597);
#484=AXIS2_PLACEMENT_3D('',#739,#598,#599);
#485=AXIS2_PLACEMENT_3D('',#741,#600,#601);
#486=AXIS2_PLACEMENT_3D('',#742,#602,#603);
#487=AXIS2_PLACEMENT_3D('',#743,#604,#605);
#488=AXIS2_PLACEMENT_3D('',#744,#606,#607);
#489=AXIS2_PLACEMENT_3D('',#745,#608,#609);
#490=AXIS2_PLACEMENT_3D('',#746,#610,#611);
#491=AXIS2_PLACEMENT_3D('',#748,#612,#613);
#492=AXIS2_PLACEMENT_3D('',#750,#614,#615);
#493=AXIS2_PLACEMENT_3D('',#752,#616,#617);
#494=AXIS2_PLACEMENT_3D('',#754,#618,#619);
#495=AXIS2_PLACEMENT_3D('',#755,#620,#621);
#496=AXIS2_PLACEMENT_3D('',#756,#622,#623);
#497=AXIS2_PLACEMENT_3D('',#757,#624,#625);
#498=AXIS2_PLACEMENT_3D('',#758,#626,#627);
#499=AXIS2_PLACEMENT_3D('',#759,#628,#629);
#500=AXIS2_PLACEMENT_3D('',#760,#630,#631);
#501=AXIS2_PLACEMENT_3D('',#761,#632,#633);
#502=AXIS2_PLACEMENT_3D('',#762,#634,#635);
#503=AXIS2_PLACEMENT_3D('',#763,#636,#637);
#504=AXIS2_PLACEMENT_3D('',#764,#638,#639);
#505=AXIS2_PLACEMENT_3D('',#765,#640,#641);
#506=DIRECTION('',(0.,0.,1.));
#507=DIRECTION('',(1.,0.,0.));
#508=DIRECTION('',(0.,-1.,0.));
#509=DIRECTION('',(0.,0.,-1.));
#510=DIRECTION('',(-1.,0.,0.));
#511=DIRECTION('',(0.,0.,-1.));
#512=DIRECTION('',(-1.,0.,0.));
#513=DIRECTION('',(0.,0.,-1.));
#514=DIRECTION('',(0.,0.,-1.));
#515=DIRECTION('',(-1.,0.,0.));
#516=DIRECTION('',(0.,0.,1.));
#517=DIRECTION('',(1.,0.,0.));
#518=DIRECTION('',(0.,0.,-1.));
#519=DIRECTION('',(0.,0.,1.));
#520=DIRECTION('',(1.,0.,0.));
#521=DIRECTION('',(-1.,-2.42054438508392E-16,0.));
#522=DIRECTION('',(2.42054438508392E-16,-1.,0.));
#523=DIRECTION('',(-2.42054438508392E-16,1.,0.));
#524=DIRECTION('',(0.,0.,-1.));
#525=DIRECTION('',(-2.42054438508392E-16,1.,0.));
#526=DIRECTION('',(0.,0.,-1.));
#527=DIRECTION('',(0.,0.,-1.));
#528=DIRECTION('',(-1.,0.,0.));
#529=DIRECTION('',(0.,0.,-1.));
#530=DIRECTION('',(1.,0.,0.));
#531=DIRECTION('',(0.,0.,-1.));
#532=DIRECTION('',(0.,0.,-1.));
#533=DIRECTION('',(1.,0.,0.));
#534=DIRECTION('',(0.,0.,-1.));
#535=DIRECTION('',(0.,-1.,0.));
#536=DIRECTION('',(0.,0.,-1.));
#537=DIRECTION('',(-1.,0.,0.));
#538=DIRECTION('',(0.,0.,-1.));
#539=DIRECTION('',(-1.,0.,0.));
#540=DIRECTION('',(0.,0.,-1.));
#541=DIRECTION('',(-1.,0.,0.));
#542=DIRECTION('',(0.,0.,1.));
#543=DIRECTION('',(1.,0.,0.));
#544=DIRECTION('',(0.,0.,-1.));
#545=DIRECTION('',(0.,0.,1.));
#546=DIRECTION('',(1.,0.,0.));
#547=DIRECTION('',(-1.,0.,0.));
#548=DIRECTION('',(0.,0.,1.));
#549=DIRECTION('',(0.,1.,0.));
#550=DIRECTION('',(0.,0.,-1.));
#551=DIRECTION('',(0.,1.,0.));
#552=DIRECTION('',(0.,0.,-1.));
#553=DIRECTION('',(-0.960206988374319,-0.279289347231719,0.));
#554=DIRECTION('',(0.279289347231719,-0.960206988374319,0.));
#555=DIRECTION('',(-0.279289347231719,0.960206988374319,0.));
#556=DIRECTION('',(0.,0.,-1.));
#557=DIRECTION('',(-0.279289347231719,0.960206988374319,0.));
#558=DIRECTION('',(0.,0.,-1.));
#559=DIRECTION('',(0.,0.,-1.));
#560=DIRECTION('',(-1.,0.,0.));
#561=DIRECTION('',(0.,0.,1.));
#562=DIRECTION('',(1.,0.,0.));
#563=DIRECTION('',(0.,0.,-1.));
#564=DIRECTION('',(0.,0.,1.));
#565=DIRECTION('',(1.,0.,0.));
#566=DIRECTION('',(0.279289347231718,0.96020698837432,0.));
#567=DIRECTION('',(-0.96020698837432,0.279289347231718,0.));
#568=DIRECTION('',(0.96020698837432,-0.279289347231718,0.));
#569=DIRECTION('',(0.,0.,-1.));
#570=DIRECTION('',(0.96020698837432,-0.279289347231718,0.));
#571=DIRECTION('',(0.,0.,-1.));
#572=DIRECTION('',(-1.,0.,0.));
#573=DIRECTION('',(0.,0.,1.));
#574=DIRECTION('',(1.,0.,0.));
#575=DIRECTION('',(0.,0.,1.));
#576=DIRECTION('',(1.,0.,0.));
#577=DIRECTION('',(0.,0.,-1.));
#578=DIRECTION('',(-1.,0.,0.));
#579=DIRECTION('',(0.,0.,1.));
#580=DIRECTION('',(1.,0.,0.));
#581=DIRECTION('',(0.,0.,1.));
#582=DIRECTION('',(1.,0.,0.));
#583=DIRECTION('',(0.,0.,-1.));
#584=DIRECTION('',(-1.,0.,0.));
#585=DIRECTION('',(0.,0.,-1.));
#586=DIRECTION('',(1.,0.,0.));
#587=DIRECTION('',(0.,0.,-1.));
#588=DIRECTION('',(1.,0.,0.));
#589=DIRECTION('',(0.,0.,-1.));
#590=DIRECTION('',(0.,0.,1.));
#591=DIRECTION('',(1.,0.,0.));
#592=DIRECTION('',(0.,0.,1.));
#593=DIRECTION('',(1.,0.,0.));
#594=DIRECTION('',(0.,0.,1.));
#595=DIRECTION('',(1.,0.,0.));
#596=DIRECTION('',(0.,0.,1.));
#597=DIRECTION('',(1.,0.,0.));
#598=DIRECTION('',(0.,0.,1.));
#599=DIRECTION('',(1.,0.,0.));
#600=DIRECTION('',(0.,0.,1.));
#601=DIRECTION('',(1.,0.,0.));
#602=DIRECTION('',(0.,0.,1.));
#603=DIRECTION('',(1.,0.,0.));
#604=DIRECTION('',(0.,0.,1.));
#605=DIRECTION('',(1.,0.,0.));
#606=DIRECTION('',(0.,0.,1.));
#607=DIRECTION('',(1.,0.,0.));
#608=DIRECTION('',(0.,0.,1.));
#609=DIRECTION('',(1.,0.,0.));
#610=DIRECTION('',(0.,0.,1.));
#611=DIRECTION('',(1.,0.,0.));
#612=DIRECTION('',(0.,0.,1.));
#613=DIRECTION('',(1.,0.,0.));
#614=DIRECTION('',(0.,0.,1.));
#615=DIRECTION('',(1.,0.,0.));
#616=DIRECTION('',(0.,0.,1.));
#617=DIRECTION('',(1.,0.,0.));
#618=DIRECTION('',(0.,0.,1.));
#619=DIRECTION('',(1.,0.,0.));
#620=DIRECTION('',(0.,0.,1.));
#621=DIRECTION('',(1.,0.,0.));
#622=DIRECTION('',(0.,0.,1.));
#623=DIRECTION('',(1.,0.,0.));
#624=DIRECTION('',(0.,0.,1.));
#625=DIRECTION('',(1.,0.,0.));
#626=DIRECTION('',(0.,0.,1.));
#627=DIRECTION('',(1.,0.,0.));
#628=DIRECTION('',(0.,0.,1.));
#629=DIRECTION('',(1.,0.,0.));
#630=DIRECTION('',(0.,0.,1.));
#631=DIRECTION('',(1.,0.,0.));
#632=DIRECTION('',(0.,0.,1.));
#633=DIRECTION('',(1.,0.,0.));
#634=DIRECTION('',(0.,0.,1.));
#635=DIRECTION('',(1.,0.,0.));
#636=DIRECTION('',(0.,0.,-1.));
#637=DIRECTION('',(-1.,0.,0.));
#638=DIRECTION('',(0.,0.,-1.));
#639=DIRECTION('',(-1.,0.,0.));
#640=DIRECTION('',(0.,0.,1.));
#641=DIRECTION('',(1.,0.,0.));
#642=CARTESIAN_POINT('',(0.,0.,0.));
#643=CARTESIAN_POINT('',(-0.0015,0.,0.008));
#644=CARTESIAN_POINT('',(-0.0015,0.,0.004));
#645=CARTESIAN_POINT('',(0.033,-1.12757025938492E-17,0.004));
#646=CARTESIAN_POINT('',(-0.003,0.,0.004));
#647=CARTESIAN_POINT('',(0.033,-1.12757025938492E-17,0.008));
#648=CARTESIAN_POINT('',(0.033,-1.12757025938492E-17,0.008));
#649=CARTESIAN_POINT('',(-0.0015,0.,0.008));
#650=CARTESIAN_POINT('',(-0.003,0.,0.008));
#651=CARTESIAN_POINT('',(-0.003,0.,0.008));
#652=CARTESIAN_POINT('',(0.033,0.003,0.008));
#653=CARTESIAN_POINT('',(0.033,0.003,0.004));
#654=CARTESIAN_POINT('',(0.033,0.006,0.004));
#655=CARTESIAN_POINT('',(0.033,0.006,0.008));
#656=CARTESIAN_POINT('',(0.033,0.006,0.008));
#657=CARTESIAN_POINT('',(0.033,0.003,0.008));
#658=CARTESIAN_POINT('',(0.03,0.0275,0.008));
#659=CARTESIAN_POINT('',(0.03,0.0275,0.004));
#660=CARTESIAN_POINT('',(0.03,0.009,0.004));
#661=CARTESIAN_POINT('',(0.03,0.046,0.004));
#662=CARTESIAN_POINT('',(0.03,0.046,0.008));
#663=CARTESIAN_POINT('',(0.03,0.046,0.008));
#664=CARTESIAN_POINT('',(0.03,0.0275,0.008));
#665=CARTESIAN_POINT('',(0.03,0.009,0.008));
#666=CARTESIAN_POINT('',(0.03,0.009,0.004));
#667=CARTESIAN_POINT('',(0.033,0.052,0.008));
#668=CARTESIAN_POINT('',(0.033,0.052,0.004));
#669=CARTESIAN_POINT('',(0.033,0.055,0.004));
#670=CARTESIAN_POINT('',(0.033,0.049,0.004));
#671=CARTESIAN_POINT('',(0.033,0.055,0.008));
#672=CARTESIAN_POINT('',(0.033,0.055,0.008));
#673=CARTESIAN_POINT('',(0.033,0.052,0.008));
#674=CARTESIAN_POINT('',(0.033,0.049,0.008));
#675=CARTESIAN_POINT('',(0.033,0.049,0.008));
#676=CARTESIAN_POINT('',(-0.0015,0.055,0.008));
#677=CARTESIAN_POINT('',(-0.0015,0.055,0.004));
#678=CARTESIAN_POINT('',(-0.003,0.055,0.004));
#679=CARTESIAN_POINT('',(-0.003,0.055,0.008));
#680=CARTESIAN_POINT('',(-0.003,0.055,0.008));
#681=CARTESIAN_POINT('',(-0.0015,0.055,0.008));
#682=CARTESIAN_POINT('',(-0.003,0.052,0.008));
#683=CARTESIAN_POINT('',(-0.003,0.052,0.004));
#684=CARTESIAN_POINT('',(-0.003,0.049,0.004));
#685=CARTESIAN_POINT('',(-0.003,0.049,0.008));
#686=CARTESIAN_POINT('',(-0.003,0.049,0.008));
#687=CARTESIAN_POINT('',(-0.003,0.052,0.008));
#688=CARTESIAN_POINT('',(0.,0.0275,0.008));
#689=CARTESIAN_POINT('',(0.,0.0275,0.004));
#690=CARTESIAN_POINT('',(0.,0.009,0.004));
#691=CARTESIAN_POINT('',(0.,0.046,0.004));
#692=CARTESIAN_POINT('',(0.,0.009,0.008));
#693=CARTESIAN_POINT('',(0.,0.009,0.008));
#694=CARTESIAN_POINT('',(0.,0.0275,0.008));
#695=CARTESIAN_POINT('',(0.,0.046,0.008));
#696=CARTESIAN_POINT('',(0.,0.046,0.008));
#697=CARTESIAN_POINT('',(0.0237543679445359,0.0396122323208049,0.008));
#698=CARTESIAN_POINT('',(0.0237543679445359,0.0396122323208049,0.004));
#699=CARTESIAN_POINT('',(0.0254066660053285,0.0339315711692926,0.004));
#700=CARTESIAN_POINT('',(0.0221020698837432,0.0452928934723172,0.004));
#701=CARTESIAN_POINT('',(0.0254066660053285,0.0339315711692926,0.008));
#702=CARTESIAN_POINT('',(0.0254066660053285,0.0339315711692926,0.008));
#703=CARTESIAN_POINT('',(0.0237543679445359,0.0396122323208049,0.008));
#704=CARTESIAN_POINT('',(0.0221020698837432,0.0452928934723172,0.008));
#705=CARTESIAN_POINT('',(0.0221020698837432,0.0452928934723172,0.008));
#706=CARTESIAN_POINT('',(0.0220459415460184,0.0329540584539816,0.008));
#707=CARTESIAN_POINT('',(0.0220459415460184,0.0329540584539816,0.004));
#708=CARTESIAN_POINT('',(0.0210684288307074,0.0295933339946715,0.004));
#709=CARTESIAN_POINT('',(0.0210684288307074,0.0295933339946715,0.008));
#710=CARTESIAN_POINT('',(0.0210684288307074,0.0295933339946715,0.008));
#711=CARTESIAN_POINT('',(0.0220459415460184,0.0329540584539816,0.008));
#712=CARTESIAN_POINT('',(0.0153877676791951,0.0312456320554641,0.008));
#713=CARTESIAN_POINT('',(0.0153877676791951,0.0312456320554641,0.004));
#714=CARTESIAN_POINT('',(0.00970710652768282,0.0328979301162568,0.004));
#715=CARTESIAN_POINT('',(0.00970710652768282,0.0328979301162568,0.008));
#716=CARTESIAN_POINT('',(0.00970710652768282,0.0328979301162568,0.008));
#717=CARTESIAN_POINT('',(0.0153877676791951,0.0312456320554641,0.008));
#718=CARTESIAN_POINT('',(0.0125,0.0155,0.008));
#719=CARTESIAN_POINT('',(0.0125,0.0155,0.008));
#720=CARTESIAN_POINT('',(0.0165,0.0155,0.008));
#721=CARTESIAN_POINT('',(0.0125,0.0155,0.004));
#722=CARTESIAN_POINT('',(0.0165,0.0155,0.004));
#723=CARTESIAN_POINT('',(0.0125,0.0425,0.008));
#724=CARTESIAN_POINT('',(0.0125,0.0425,0.004));
#725=CARTESIAN_POINT('',(0.0125,0.0425,0.008));
#726=CARTESIAN_POINT('',(-0.003,0.003,0.008));
#727=CARTESIAN_POINT('',(-0.003,0.003,0.004));
#728=CARTESIAN_POINT('',(-0.003,0.006,0.004));
#729=CARTESIAN_POINT('',(-0.003,0.003,0.008));
#730=CARTESIAN_POINT('',(-0.003,0.006,0.008));
#731=CARTESIAN_POINT('',(-0.003,0.006,0.008));
#732=CARTESIAN_POINT('',(0.015,0.0275,0.008));
#733=CARTESIAN_POINT('',(-0.003,0.003,0.008));
#734=CARTESIAN_POINT('',(-0.0015,0.003,0.008));
#735=CARTESIAN_POINT('',(0.033,0.003,0.008));
#736=CARTESIAN_POINT('',(0.0345,0.003,0.008));
#737=CARTESIAN_POINT('',(0.033,0.052,0.008));
#738=CARTESIAN_POINT('',(0.0345,0.052,0.008));
#739=CARTESIAN_POINT('',(-0.003,0.052,0.008));
#740=CARTESIAN_POINT('',(-0.0015,0.052,0.008));
#741=CARTESIAN_POINT('',(0.033,0.009,0.008));
#742=CARTESIAN_POINT('',(0.033,0.046,0.008));
#743=CARTESIAN_POINT('',(-0.003,0.046,0.008));
#744=CARTESIAN_POINT('',(-0.003,0.009,0.008));
#745=CARTESIAN_POINT('',(0.015,0.0275,0.004));
#746=CARTESIAN_POINT('',(-0.003,0.003,0.004));
#747=CARTESIAN_POINT('',(-0.0015,0.003,0.004));
#748=CARTESIAN_POINT('',(0.033,0.003,0.004));
#749=CARTESIAN_POINT('',(0.0345,0.003,0.004));
#750=CARTESIAN_POINT('',(0.033,0.052,0.004));
#751=CARTESIAN_POINT('',(0.0345,0.052,0.004));
#752=CARTESIAN_POINT('',(-0.003,0.052,0.004));
#753=CARTESIAN_POINT('',(-0.0015,0.052,0.004));
#754=CARTESIAN_POINT('',(-0.003,0.009,0.004));
#755=CARTESIAN_POINT('',(-0.003,0.046,0.004));
#756=CARTESIAN_POINT('',(0.033,0.046,0.004));
#757=CARTESIAN_POINT('',(0.033,0.009,0.004));
#758=CARTESIAN_POINT('',(-0.003,0.052,-0.0616734768009752));
#759=CARTESIAN_POINT('',(0.033,0.052,-0.0616734768009752));
#760=CARTESIAN_POINT('',(0.033,0.003,-0.0616734768009752));
#761=CARTESIAN_POINT('',(-0.003,0.003,-0.0616734768009752));
#762=CARTESIAN_POINT('',(-0.003,0.009,0.008));
#763=CARTESIAN_POINT('',(-0.003,0.046,0.008));
#764=CARTESIAN_POINT('',(0.033,0.046,0.008));
#765=CARTESIAN_POINT('',(0.033,0.009,0.008));
#766=MECHANICAL_DESIGN_GEOMETRIC_PRESENTATION_REPRESENTATION('',(#441),
#767);
#767=(
GEOMETRIC_REPRESENTATION_CONTEXT(3)
GLOBAL_UNCERTAINTY_ASSIGNED_CONTEXT((#768))
GLOBAL_UNIT_ASSIGNED_CONTEXT((#771,#770,#769))
REPRESENTATION_CONTEXT('Part 2','TOP_LEVEL_ASSEMBLY_PART')
);
#768=UNCERTAINTY_MEASURE_WITH_UNIT(LENGTH_MEASURE(1.E-8),#771,
'DISTANCE_ACCURACY_VALUE','Maximum Tolerance applied to model');
#769=(
NAMED_UNIT(*)
SI_UNIT($,.STERADIAN.)
SOLID_ANGLE_UNIT()
);
#770=(
NAMED_UNIT(*)
PLANE_ANGLE_UNIT()
SI_UNIT($,.RADIAN.)
);
#771=(
LENGTH_UNIT()
NAMED_UNIT(*)
SI_UNIT($,.METRE.)
);
#772=PRODUCT_DEFINITION_SHAPE('','',#773);
#773=PRODUCT_DEFINITION('','',#775,#774);
#774=PRODUCT_DEFINITION_CONTEXT('',#781,'design');
#775=PRODUCT_DEFINITION_FORMATION_WITH_SPECIFIED_SOURCE('','',#777,
 .NOT_KNOWN.);
#776=PRODUCT_RELATED_PRODUCT_CATEGORY('','',(#777));
#777=PRODUCT('Part 2','Part 2','Part 2',(#779));
#778=PRODUCT_CATEGORY('','');
#779=PRODUCT_CONTEXT('',#781,'mechanical');
#780=APPLICATION_PROTOCOL_DEFINITION('international standard',
'ap242_managed_model_based_3d_engineering',2020,#781);
#781=APPLICATION_CONTEXT('managed model based 3d engineering');
ENDSEC;
END-ISO-10303-21;
